<?xml version="1.0" standalone="no"?>
<!DOCTYPE svg PUBLIC "-//W3C//DTD SVG 1.1//EN" "http://www.w3.org/Graphics/SVG/1.1/DTD/svg11.dtd" >
<svg xmlns="http://www.w3.org/2000/svg">
<metadata>
This is a custom SVG webfont generated by Font Squirrel.
Copyright   :  19902006 Apple Computer Inc  1981 Linotype AG  199091 Type Solutions Inc
</metadata>
<defs>
<font id="HelveticaOblique" horiz-adv-x="1139" >
<font-face units-per-em="2048" ascent="1638" descent="-410" />
<missing-glyph horiz-adv-x="569" />
<glyph unicode=" "  horiz-adv-x="569" />
<glyph unicode="&#x09;" horiz-adv-x="569" />
<glyph unicode="&#xa0;" horiz-adv-x="569" />
<glyph unicode="!" horiz-adv-x="569" d="M237 0l44 208h199l-44 -208h-199zM363 350l83 636l103 483h203l-103 -483l-184 -636h-102z" />
<glyph unicode="&#x22;" horiz-adv-x="727" d="M300 881l94 588h181l-154 -588h-121zM642 881l94 588h182l-155 -588h-121z" />
<glyph unicode="#" d="M94 445l55 116h233l167 344h-232l56 116h232l214 448h149l-216 -448h221l218 448h147l-216 -448h232l-56 -116h-232l-168 -344h233l-56 -116h-230l-217 -445h-147l215 445h-223l-213 -445h-149l215 445h-232zM531 561h218l168 344h-221z" />
<glyph unicode="$" d="M155 163q-35 101 1 273h177q-21 -137 1 -200q38 -113 203 -127l116 545q-208 41 -290.5 137t-46.5 266q32 152 169.5 274t339.5 124l28 133h95l-28 -131q196 -14 280.5 -117.5t53.5 -273.5h-175q9 76 -13 131q-42 101 -179 106l-103 -486q218 -65 289 -122 q115 -94 76 -278q-56 -266 -253 -378q-109 -62 -295 -82l-41 -194h-95l41 194q-287 19 -351 206zM499 1069q-21 -99 32.5 -155t159.5 -78l100 470q-132 -5 -203.5 -80t-88.5 -157zM633 104q172 8 262 125q47 60 64 139q26 125 -52 190q-45 38 -163 72z" />
<glyph unicode="%" horiz-adv-x="1821" d="M287 1040q30 144 154 246.5t268 102.5q145 0 225 -102.5t50 -246.5q-31 -144 -154.5 -246t-268.5 -102q-144 0 -224.5 102t-49.5 246zM429 1040q-19 -85 29 -145.5t133 -60.5q86 0 159 60.5t92 145.5q18 85 -30 145.5t-134 60.5q-85 0 -158 -60t-91 -146zM441 -38 l1113 1464h111l-1113 -1464h-111zM1120 348q31 144 154.5 246t268.5 102q144 0 224.5 -102t49.5 -246q-30 -144 -153.5 -246t-267.5 -102q-145 0 -225.5 102t-50.5 246zM1262 348q-18 -85 30 -145.5t134 -60.5q85 0 158 60.5t91 145.5q19 85 -29 145.5t-133 60.5 q-86 0 -159 -60.5t-92 -145.5z" />
<glyph unicode="&#x26;" horiz-adv-x="1366" d="M167 368q35 167 160 279q76 68 267 170q-70 107 -86 180t-2 141q31 142 146.5 235.5t276.5 93.5q153 0 220.5 -87t42.5 -208q-30 -141 -142 -247q-65 -62 -204 -143l200 -320q44 80 62.5 119.5t45.5 110.5h171q-47 -141 -125.5 -270.5t-73.5 -104.5l194 -317h-232 l-103 168q-101 -89 -177 -130q-135 -72 -290 -72q-229 0 -306.5 123.5t-44.5 278.5zM349 367q-25 -117 47 -180t169 -63q111 0 202 51t147 114l-246 405q-161 -94 -215 -144q-82 -75 -104 -183zM686 1160q-13 -61 8.5 -117t80.5 -145q110 67 155 109q73 68 91 151 q13 65 -20 112t-106 47q-111 0 -169 -74q-30 -38 -40 -83z" />
<glyph unicode="'" horiz-adv-x="391" d="M376 881l92 588h182l-158 -588h-116z" />
<glyph unicode="(" horiz-adv-x="682" d="M229 360q8 87 24 166q63 296 205 527q91 147 340 440h125q-222 -305 -300 -449q-117 -219 -178 -506q-62 -290 -32 -530q19 -148 107 -426h-121q-98 228 -119.5 291t-39.5 171q-25 148 -11 316z" />
<glyph unicode=")" horiz-adv-x="682" d="M-17 -418q224 310 300 452q115 215 177 504q61 289 31 529q-18 148 -106 426h121q102 -246 122 -303.5t37 -158.5q21 -125 15.5 -247t-29.5 -235q-63 -296 -206 -528q-91 -149 -338 -439h-124z" />
<glyph unicode="*" horiz-adv-x="797" d="M335 1211l63 111l200 -78l48 225h116l-48 -223l234 76l17 -111l-233 -71l95 -188l-114 -71l-90 195l-173 -195l-87 71l177 188z" />
<glyph unicode="+" horiz-adv-x="1196" d="M185 438l35 168h436l94 439h171l-94 -439h436l-35 -168h-436l-93 -438h-171l93 438h-436z" />
<glyph unicode="," horiz-adv-x="569" d="M105 -304l20 95q72 12 118 97q24 45 33 87q2 7 2.5 12.5t0.5 12.5h-109l46 218h214l-43 -202q-25 -119 -92.5 -209t-189.5 -111z" />
<glyph unicode="-" horiz-adv-x="682" d="M186 478l39 185h502l-39 -185h-502z" />
<glyph unicode="." horiz-adv-x="569" d="M175 0l46 218h209l-46 -218h-209z" />
<glyph unicode="/" horiz-adv-x="569" d="M0 0l778 1469h152l-778 -1469h-152z" />
<glyph unicode="0" d="M208 185q-65 187 2 502q51 244 152 419q187 326 496 326q278 0 353 -229q59 -177 -7 -485q-62 -292 -190 -483q-184 -274 -470 -274q-258 0 -336 224zM375 328q29 -203 203 -203q140 0 249.5 124t181.5 462q51 244 24.5 401.5t-199.5 157.5q-159 0 -264 -149.5 t-167 -440.5q-47 -219 -28 -352z" />
<glyph unicode="1" d="M411 1014l29 138q199 19 285.5 63.5t160.5 210.5h142l-303 -1426h-192l215 1014h-337z" />
<glyph unicode="2" d="M64 0q49 185 144.5 322t312.5 249l215 111q145 75 209 128q99 83 122 190q27 125 -32.5 198.5t-184.5 73.5q-185 0 -286 -140q-54 -75 -86 -208h-183q43 187 134 305q161 208 457 208q246 0 331 -133t51 -296q-37 -172 -184 -294q-85 -71 -287 -172l-153 -76 q-110 -54 -176 -103q-119 -87 -167 -193h782l-36 -170h-983z" />
<glyph unicode="3" d="M142 440h188q-18 -139 9 -202q46 -113 229 -113q142 0 244 76t128 196q31 148 -47 207t-239 59q-18 0 -36.5 -0.5t-37.5 -1.5l34 159q27 -3 46 -4t41 -1q101 0 173 32q125 56 156 200q23 107 -41 165t-165 58q-180 0 -274 -120q-52 -66 -83 -188h-178q34 160 122 272 q152 200 429 200q219 0 318.5 -97.5t60.5 -282.5q-29 -132 -117 -214q-55 -51 -131 -80q106 -31 151 -119.5t18 -216.5q-44 -205 -206.5 -334t-410.5 -129q-254 0 -338.5 139.5t-42.5 339.5z" />
<glyph unicode="4" d="M126 350l37 176l850 910h152l-198 -929h211l-33 -157h-211l-74 -350h-180l74 350h-628zM325 507h459l138 649z" />
<glyph unicode="5" d="M143 365h187q-15 -154 98 -213q57 -30 141 -30q160 0 259 102t125 226q32 150 -42 232t-202 82q-93 0 -167 -36t-135 -100l-154 9l273 771h744l-37 -174h-609l-146 -398q58 38 107 57q87 33 192 33q197 0 307 -127t69 -322q-43 -203 -201.5 -358t-433.5 -155 q-175 0 -288.5 98.5t-86.5 302.5z" />
<glyph unicode="6" d="M210 629q57 267 161 453q201 356 533 356q240 0 308 -124.5t40 -256.5h-178q2 85 -23 133q-45 90 -177 90q-151 0 -270 -139.5t-184 -399.5q81 91 185 136q94 40 200 40q180 0 290 -115t61 -343q-41 -195 -200 -345.5t-394 -150.5q-201 0 -315 152.5t-37 513.5zM380 444 q-29 -136 31 -228.5t201 -92.5q142 0 232.5 95.5t118.5 225.5q23 110 -18.5 209.5t-207.5 99.5q-116 0 -220 -77t-137 -232z" />
<glyph unicode="7" d="M279 0q155 410 473 816q188 238 375 411h-792l39 181h996l-34 -157q-83 -67 -232.5 -233t-278.5 -358q-127 -187 -205 -341q-50 -99 -142 -319h-199z" />
<glyph unicode="8" d="M151 402q27 127 108.5 219.5t214.5 141.5q-69 32 -101 75q-62 80 -35 208q34 160 174.5 275t353.5 115q206 0 300 -108.5t63 -253.5q-29 -134 -114 -217q-48 -47 -138 -92q80 -41 120 -94q74 -100 40 -260q-40 -189 -195 -320.5t-387 -131.5q-209 0 -329.5 113.5 t-74.5 329.5zM347 398q-24 -112 33.5 -193.5t213.5 -81.5q125 0 221.5 67.5t125.5 201.5q29 139 -40.5 211t-202.5 72q-129 0 -226 -73.5t-125 -203.5zM527 1047q-21 -101 41.5 -158t164.5 -57q119 0 200.5 66.5t100.5 158.5q17 80 -32.5 147t-180.5 67q-130 0 -202.5 -67 t-91.5 -157z" />
<glyph unicode="9" d="M163 346h182q-24 -149 71 -206q49 -30 118 -30q129 0 243 107.5t222 436.5q-81 -95 -177.5 -133.5t-198.5 -38.5q-207 0 -300 129t-50 332q41 195 191.5 343t382.5 148q313 0 372 -282q33 -155 -16 -388q-56 -263 -178 -466q-203 -338 -516 -338q-210 0 -295.5 110 t-50.5 276zM460 945q-29 -140 21.5 -222.5t199.5 -82.5q107 0 210.5 70.5t140.5 246.5q34 158 -29.5 235.5t-186.5 77.5q-132 0 -228 -88.5t-128 -236.5z" />
<glyph unicode=":" horiz-adv-x="569" d="M227 0l46 218h209l-46 -218h-209zM405 839l46 218h209l-46 -218h-209z" />
<glyph unicode=";" horiz-adv-x="569" d="M162 -304l20 95q73 13 117 93q23 42 33 92q1 5 1.5 8.5t2.5 15.5h-109l46 218h213l-43 -202q-23 -107 -69 -179q-77 -118 -212 -141zM405 839l46 218h213l-46 -218h-213z" />
<glyph unicode="&#x3c;" horiz-adv-x="1196" d="M121 440l35 166l1267 458l-39 -180l-1032 -361l879 -362l-39 -180z" />
<glyph unicode="=" horiz-adv-x="1196" d="M139 222l36 171h1043l-36 -171h-1043zM231 654l35 168h1043l-35 -168h-1043z" />
<glyph unicode="&#x3e;" horiz-adv-x="1196" d="M23 -19l39 180l1032 362l-879 361l39 180l1071 -458l-35 -168z" />
<glyph unicode="?" d="M370 1009q46 216 196 347.5t363 131.5q197 0 291.5 -112.5t57.5 -287.5q-23 -106 -80.5 -172t-216.5 -194q-116 -93 -158 -157.5t-69 -190.5h-178q30 143 83 230.5t192 200.5l96 79q44 34 73 71q54 65 69 135q21 98 -22 170t-178 72q-167 0 -258 -124q-50 -69 -83 -199 h-178zM493 0l44 208h199l-44 -208h-199z" />
<glyph unicode="@" horiz-adv-x="2079" d="M374 701q69 326 337 554q298 254 709 254q356 0 522 -180q155 -170 97 -441q-48 -228 -219 -389.5t-340 -161.5q-99 0 -136 47.5t-22 114.5q2 11 6.5 23t10.5 25q-78 -115 -169 -162.5t-177 -47.5q-123 0 -180.5 89t-27.5 229q42 199 205 351t313 152q102 0 156 -59 t40 -142l86 168h147l-226 -438q-26 -51 -39.5 -82t-19.5 -55q-9 -45 14 -65.5t58 -20.5q114 0 230 119t157 311q49 232 -85 364.5t-408 132.5q-380 0 -628 -222q-212 -189 -273 -475q-53 -250 75 -420q149 -201 504 -201q166 0 320 52.5t292 141.5l47 -90 q-107 -80 -301 -150t-409 -70q-418 0 -588 261q-137 209 -78 483zM950 652q-21 -98 11 -149.5t97 -51.5q135 0 244 157.5t136 284.5q13 62 -17.5 111.5t-103.5 49.5q-114 0 -226.5 -134.5t-140.5 -267.5z" />
<glyph unicode="A" horiz-adv-x="1366" d="M30 0l865 1469h225l221 -1469h-218l-56 440h-581l-252 -440h-204zM577 602h460l-85 649z" />
<glyph unicode="B" horiz-adv-x="1366" d="M151 0l312 1469h631q258 0 334 -154q29 -58 29 -127q0 -40 -10 -83q-29 -139 -127 -228q-51 -47 -136 -86q103 -43 148 -97q54 -66 54 -166q0 -46 -11 -99q-30 -142 -144 -257q-169 -172 -459 -172h-621zM382 170h429q183 0 283 106q63 67 84 162q7 33 7 62 q0 110 -104 156q-69 31 -194 31h-395zM526 848h362q126 0 203 35q122 55 152 198q7 33 7 60q0 95 -82 134q-61 28 -191 28h-355z" />
<glyph unicode="C" horiz-adv-x="1479" d="M249 750q69 325 285 533q234 226 561 226q279 0 402 -147q104 -124 104 -276q0 -28 -4 -58h-194q-3 142 -84 225t-259 83q-217 0 -382.5 -152.5t-232.5 -467.5q-21 -100 -21 -186q0 -134 52 -232q86 -160 326 -161q220 0 371 169q79 89 140 234h194q-75 -232 -254 -389 q-216 -189 -513 -189q-256 0 -397 155q-124 137 -124 375q0 117 30 258z" />
<glyph unicode="D" horiz-adv-x="1479" d="M165 0l312 1469h595q303 0 424 -215q67 -121 67 -285q0 -98 -24 -212q-49 -234 -178 -423q-225 -334 -603 -334h-593zM401 170h355q101 0 170 21q124 39 222 150q78 89 133 228q33 83 48 154q25 118 25 213q0 125 -44 211q-76 151 -317 151h-353z" />
<glyph unicode="E" horiz-adv-x="1366" d="M175 0l312 1469h1071l-39 -180h-877l-94 -446h811l-36 -170h-811l-106 -498h892l-37 -175h-1086z" />
<glyph unicode="F" horiz-adv-x="1251" d="M175 0l312 1469h1019l-39 -180h-820l-94 -446h721l-38 -175h-721l-141 -668h-199z" />
<glyph unicode="G" horiz-adv-x="1593" d="M250 712q78 369 325 587q234 208 536 208q207 0 341 -80q183 -108 183 -370q0 -16 -1 -33h-197q-2 161 -99 234.5t-269 73.5q-204 0 -376 -153t-237 -456q-23 -107 -23 -199q0 -130 47 -228q81 -164 341 -164q199 0 354 115.5t212 373.5h-460l36 165h645l-167 -786h-128 l-8 189q-125 -111 -212 -154q-147 -74 -349 -74q-261 0 -413 169q-107 142 -107 355q0 105 26 227z" />
<glyph unicode="H" horiz-adv-x="1479" d="M161 0l312 1469h201l-129 -607h764l129 607h201l-312 -1469h-201l146 687h-764l-146 -687h-201z" />
<glyph unicode="I" horiz-adv-x="569" d="M201 0l312 1469h201l-312 -1469h-201z" />
<glyph unicode="J" horiz-adv-x="1024" d="M113 369l22 105h187l-22 -105q-10 -47 -10 -84q0 -59 25 -97q41 -60 154 -60q159 0 231 109q44 67 84 253l208 979h197l-219 -1031q-40 -186 -117 -289q-142 -188 -428 -188q-165 0 -263 89q-65 60 -65 182q0 61 16 137z" />
<glyph unicode="K" horiz-adv-x="1366" d="M156 0l312 1469h194l-152 -716l868 716h275l-737 -592l442 -877h-259l-358 737l-283 -225l-108 -512h-194z" />
<glyph unicode="L" d="M156 0l312 1469h199l-275 -1294h744l-37 -175h-943z" />
<glyph unicode="M" horiz-adv-x="1706" d="M151 0l312 1469h285l158 -1242l683 1242h282l-312 -1469h-189l184 867q9 45 33.5 149t49.5 223l-682 -1239h-197l-159 1239l-10 -45q-11 -54 -32 -164.5t-32 -162.5l-184 -867h-190z" />
<glyph unicode="N" horiz-adv-x="1479" d="M156 0l312 1469h235l489 -1190l253 1190h189l-312 -1469h-223l-501 1189l-252 -1189h-190z" />
<glyph unicode="O" horiz-adv-x="1593" d="M234 727q63 298 256 510q248 272 620 272q389 0 523 -250q65 -120 65 -282q0 -100 -25 -217q-70 -329 -283 -547q-251 -256 -614 -256q-339 0 -485 224q-82 139 -82 326q0 103 25 220zM437 714q-19 -91 -19 -171q0 -137 55 -241q88 -168 365 -167q263 0 420.5 188.5 t209.5 433.5q19 91 19 170q1 145 -65 247q-102 158 -337 158q-228 0 -405.5 -156.5t-242.5 -461.5z" />
<glyph unicode="P" horiz-adv-x="1366" d="M175 0l312 1469h661q196 -1 292 -111q67 -76 67 -195q0 -53 -13 -115q-36 -172 -170.5 -299.5t-356.5 -127.5h-462l-131 -621h-199zM541 789h396q134 0 229.5 57t126.5 201q8 39 8 72q0 104 -81 148q-60 31 -175 31h-396z" />
<glyph unicode="Q" horiz-adv-x="1593" d="M234 727q63 298 256 510q248 272 620 272q389 0 523 -250q65 -120 65 -282q0 -101 -25 -217q-30 -142 -93 -273q-95 -200 -248 -326l168 -157l-125 -121l-191 173q-91 -45 -192.5 -72t-214.5 -27q-342 0 -488 224q-80 140 -80 325q0 103 25 221zM437 714 q-20 -95 -20 -176q0 -145 64 -246q100 -157 358 -157q62 0 118 8.5t101 33.5l-134 126l126 123l160 -149q113 104 173 233t85 247q19 91 19 170q0 145 -65 247q-102 158 -337 158q-238 0 -409.5 -151.5t-238.5 -466.5z" />
<glyph unicode="R" horiz-adv-x="1479" d="M180 0l312 1469h680q168 0 266 -49q146 -73 146 -243q0 -48 -12 -104q-28 -132 -100.5 -216t-181.5 -135q79 -35 110 -92q18 -33 18 -91q0 -41 -9 -94l-35 -197q-12 -70 -12 -110v-15q3 -70 45 -90l-7 -33h-244q-6 19 -6 49t15 116l40 245q5 30 5 55q0 99 -71 138 q-52 27 -174 27h-453l-133 -630h-199zM548 796h460q140 0 233.5 56t124.5 202q8 38 8 71q0 100 -77 143q-55 30 -157 30h-486z" />
<glyph unicode="S" horiz-adv-x="1366" d="M199 474h187q-7 -44 -7 -82q0 -70 23 -121q68 -146 318 -146q112 0 211 32q191 62 225 222q7 34 7 63q0 72 -46 108q-65 50 -219 87l-190 45q-185 44 -255 97q-91 69 -91 191q0 39 10 84q42 198 206 325t415 127q231 0 369 -112q100 -81 99 -232q0 -57 -14 -124h-187 q2 26 2 50q0 82 -27 131q-67 115 -285 115q-176 0 -268.5 -74t-113.5 -172q-5 -24 -6 -46q0 -74 62 -112q52 -32 250 -80l196 -47q142 -34 210 -93q88 -76 88 -203q0 -45 -11 -96q-52 -244 -252 -349t-435 -105q-274 0 -399 140q-88 98 -88 244q0 62 16 133z" />
<glyph unicode="T" horiz-adv-x="1251" d="M308 1294l37 175h1192l-37 -175h-495l-275 -1294h-202l275 1294h-495z" />
<glyph unicode="U" horiz-adv-x="1479" d="M291 227q-18 62 -18 146q0 115 33 271l176 825h202l-193 -908q-16 -77 -16 -141q0 -70 19 -125q55 -160 266 -160q253 0 381 173q69 94 103 253l193 908h202l-176 -825q-57 -271 -161 -417q-191 -266 -563 -266t-448 266z" />
<glyph unicode="V" horiz-adv-x="1366" d="M364 1469h220l156 -1251l683 1251h223l-848 -1469h-211z" />
<glyph unicode="W" horiz-adv-x="1933" d="M349 1469h216l23 -1195l586 1195h216l78 -1195l531 1195h218l-698 -1469h-209l-81 1218l-599 -1218h-209z" />
<glyph unicode="X" horiz-adv-x="1366" d="M42 0l686 753l-341 716h249l255 -562l492 562h237l-645 -716l357 -753h-247l-268 604l-535 -604h-240z" />
<glyph unicode="Y" horiz-adv-x="1366" d="M354 1469h232l272 -706l572 706h233l-742 -877l-125 -592h-199l125 592z" />
<glyph unicode="Z" horiz-adv-x="1251" d="M47 0l35 165l1141 1129h-835l37 175h1091l-37 -171l-1144 -1123h906l-37 -175h-1157z" />
<glyph unicode="[" horiz-adv-x="569" d="M42 -403l400 1882h384l-31 -147h-214l-338 -1588h214l-31 -147h-384z" />
<glyph unicode="\" horiz-adv-x="569" d="M243 1469h156l259 -1469h-156z" />
<glyph unicode="]" horiz-adv-x="569" d="M-38 -403l31 147h212l338 1588h-213l31 147h384l-400 -1882h-383z" />
<glyph unicode="^" horiz-adv-x="961" d="M248 606l535 863h154l169 -863h-163l-125 662l-406 -662h-164z" />
<glyph unicode="_" d="M-54 -256l22 101h1138l-22 -101h-1138z" />
<glyph unicode="`" horiz-adv-x="682" d="M437 1502h223l158 -289h-137z" />
<glyph unicode="a" d="M141 281q32 149 142.5 231t265.5 101l294 36q64 8 95 52q17 24 26 69q5 24 5 44q0 58 -42 90q-57 42 -179 41q-141 0 -216 -76q-42 -42 -69 -125h-168q47 198 187 275.5t303 77.5q189 0 291 -72q78 -55 77 -156q0 -32 -7 -68l-131 -617q-6 -28 1.5 -45t44.5 -17 q12 0 27.5 1.5t33.5 4.5l-29 -133q-44 -12 -66.5 -15t-60.5 -3q-93 0 -121 66q-11 26 -11 69q0 14 1 30q-71 -72 -185 -125t-238 -53q-148 0 -224 90q-55 65 -55 155q0 34 8 72zM330 285q-4 -21 -4 -39q0 -51 34 -84q48 -45 126 -45q95 0 194 44q165 73 201 239l30 145 q-37 -21 -92 -35t-106 -20l-112 -14q-101 -13 -156 -41q-93 -47 -115 -150z" />
<glyph unicode="b" d="M118 0l313 1474h175l-113 -533q75 77 165.5 117.5t186.5 40.5q199 1 295 -137q60 -86 60 -224q0 -82 -21 -182q-54 -254 -213 -422t-377 -168q-122 0 -193 59q-43 35 -83 112l-29 -137h-166zM385 302q33 -177 227 -177q146 0 243 116t138 306q15 72 15 133q0 83 -28 147 q-49 111 -190 111q-123 0 -235 -91t-156 -300q-20 -97 -20 -170q0 -41 6 -75z" />
<glyph unicode="c" horiz-adv-x="1024" d="M166 506q60 282 230.5 439t382.5 157q181 0 275 -88q77 -71 78 -226q0 -36 -5 -77h-175q1 10 1 20q0 87 -39 145q-43 66 -169 65q-172 0 -282 -168q-71 -109 -105 -269q-15 -70 -15 -131q0 -78 25 -140q45 -110 191 -110q112 0 192 68.5t130 187.5h175 q-75 -213 -216 -311.5t-328 -98.5q-210 -1 -302 153q-60 100 -61 234q0 70 17 150z" />
<glyph unicode="d" d="M165 513q49 234 205 405.5t378 171.5q123 0 195 -52q42 -30 87 -105l115 541h173l-313 -1474h-162l31 149q-84 -99 -179.5 -143t-206.5 -44q-179 0 -278 150q-64 97 -64 237q0 76 19 164zM357 523q-16 -74 -16 -138q-1 -84 27 -150q48 -116 210 -116q125 0 228 107.5 t146 308.5q18 83 18 149q0 94 -37 152q-62 98 -184 97q-136 0 -242.5 -104t-149.5 -306z" />
<glyph unicode="e" d="M181 515q55 258 229 419t400 161q114 0 210 -53.5t133 -138.5q33 -71 33 -164q0 -12 -1 -25q1 -74 -34 -236h-785q-11 -60 -11 -111q1 -89 33 -151q52 -98 202 -98q141 0 244 93q60 54 95 125h177q-20 -59 -74.5 -131.5t-113.5 -118.5q-99 -80 -226 -108 q-69 -16 -151 -16q-200 0 -308 146q-71 96 -71 242q0 76 19 165zM401 621h595q5 42 5 78q0 64 -16 109q-46 130 -219 130q-124 0 -227 -89.5t-138 -227.5z" />
<glyph unicode="f" horiz-adv-x="569" d="M177 0l196 924h-149l30 142h149l36 168q28 112 74 164q82 92 262 92q17 0 35 -1t40 -3l-35 -164q-27 2 -39.5 2.5t-23.5 0.5q-82 0 -107 -42.5t-62 -216.5h178l-30 -142h-180l-196 -924h-178z" />
<glyph unicode="g" d="M65 -133h183v-9q0 -65 29 -102q48 -60 179 -60q207 0 302 146q56 86 100 307q-71 -82 -155.5 -122t-209.5 -40q-174 0 -279 123q-65 78 -65 221q0 83 22 188q57 269 220.5 420t349.5 151q126 0 207 -62q44 -35 82 -102l29 135h166l-207 -974q-43 -204 -128 -322 q-159 -218 -470 -218q-173 0 -274 77q-85 65 -85 189q0 26 4 54zM353 504q-16 -76 -16 -137q0 -84 31 -139q53 -94 177 -94q194 0 310 175q65 99 93 231q18 81 18 146q0 92 -37 149q-62 96 -189 96q-190 0 -297 -178q-58 -95 -90 -249z" />
<glyph unicode="h" d="M132 0l313 1474h180l-117 -548q82 81 140 114q99 57 229 57q233 0 281 -163q11 -39 12 -92q0 -67 -19 -155l-146 -687h-185l143 675q15 69 15 116q0 34 -8 57q-31 88 -166 88q-112 0 -219 -77t-153 -291l-120 -568h-180z" />
<glyph unicode="i" horiz-adv-x="455" d="M132 0l226 1066h183l-226 -1066h-183zM400 1265l44 204h183l-44 -204h-183z" />
<glyph unicode="j" horiz-adv-x="455" d="M-128 -427l33 156q121 4 149 21.5t48 109.5l256 1206h180l-260 -1225q-25 -117 -75 -175q-84 -98 -259 -98q-13 0 -27.5 1t-44.5 4zM400 1261l44 208h180l-44 -208h-180z" />
<glyph unicode="k" horiz-adv-x="1024" d="M128 0l312 1469h173l-182 -853l559 455h230l-495 -401l291 -670h-230l-220 540l-180 -138l-85 -402h-173z" />
<glyph unicode="l" horiz-adv-x="455" d="M137 0l312 1469h180l-312 -1469h-180z" />
<glyph unicode="m" horiz-adv-x="1706" d="M132 0l227 1071h178l-32 -152q81 79 140 115q102 61 215 61q128 0 193 -63q36 -36 57 -106q79 86 168.5 127.5t190.5 41.5q216 0 261 -156q11 -37 10 -86q0 -61 -16 -140l-151 -713h-187l158 744q7 35 7 63q0 57 -30 84q-45 40 -122 40q-106 0 -197.5 -71t-126.5 -237 l-132 -623h-183l148 699q14 66 14 110q0 29 -6 49q-25 75 -137 75q-102 0 -202.5 -79t-144.5 -286l-120 -568h-180z" />
<glyph unicode="n" d="M132 0l227 1071h171l-32 -152q96 94 189.5 135t197.5 41q228 0 274 -159q11 -38 11 -89q0 -68 -19 -160l-146 -687h-183l143 675q12 56 12 99q0 33 -7 59q-27 100 -153 100q-64 0 -108 -13q-79 -22 -149 -88q-56 -53 -81.5 -109.5t-47.5 -161.5l-119 -561h-180z" />
<glyph unicode="o" d="M167 512q58 270 229 430t402 160q206 0 320 -138q76 -92 76 -241q0 -75 -19 -165q-55 -259 -217 -428t-427 -169q-221 -1 -319 149q-64 97 -64 238q0 76 19 164zM353 515q-15 -71 -15 -132q0 -86 30 -153q50 -114 213 -114q179 0 274.5 135.5t130.5 301.5q17 80 17 144 q0 56 -13 100q-45 148 -231 148q-165 0 -266.5 -126t-139.5 -304z" />
<glyph unicode="p" d="M27 -427l317 1493h175l-30 -142q69 73 142 113q104 60 227 60q182 0 279 -139q62 -90 62 -227q0 -78 -20 -172q-74 -350 -289 -500q-136 -95 -290 -95q-121 0 -192 53q-42 30 -85 103l-116 -547h-180zM389 287q34 -166 220 -166q126 0 232 105.5t151 315.5q16 77 16 141 q0 42 -7 79q-32 177 -218 177q-187 0 -296 -187q-58 -100 -91 -254q-15 -72 -15 -131q0 -43 8 -80z" />
<glyph unicode="q" d="M167 508q55 257 216.5 422t362.5 165q133 0 210 -67q42 -36 73 -106l32 149h171l-318 -1498h-181l117 550q-61 -72 -149.5 -114.5t-207.5 -42.5q-171 0 -277 134q-69 87 -69 232q0 79 20 176zM348 288q33 -167 211 -167q188 0 297 176q59 97 91 248q17 79 17 143 q0 49 -10 89q-40 159 -224 159q-117 0 -222 -101.5t-150 -313.5q-18 -84 -18 -152q0 -44 8 -81z" />
<glyph unicode="r" horiz-adv-x="682" d="M137 0l227 1071h171l-39 -185q32 54 130.5 131.5t205.5 77.5q5 0 17 -1t40 -4l-40 -190q-16 3 -29 4t-29 1q-136 0 -227.5 -87.5t-116.5 -201.5l-130 -616h-180z" />
<glyph unicode="s" horiz-adv-x="1024" d="M137 336h173q-3 -26 -3 -49q0 -55 19 -89q49 -87 217 -87q100 0 185.5 43.5t104.5 134.5q3 15 3 28q0 48 -42 77q-34 22 -143 51l-135 36q-130 34 -186 76q-79 57 -79 149q0 25 6 53q32 152 161.5 246t314.5 94q242 0 319 -142q32 -60 32 -126q0 -33 -8 -68h-170 q2 14 2 27q0 46 -22 84q-47 71 -200 71q-102 0 -162.5 -39t-74.5 -103q-3 -14 -3 -27q0 -52 48 -85q35 -25 109 -44l113 -29q184 -47 241 -91q66 -51 66 -145q0 -33 -8 -72q-30 -143 -160.5 -247t-352.5 -104q-240 1 -316 109q-57 80 -56 188q0 38 7 80z" />
<glyph unicode="t" horiz-adv-x="569" d="M213 215l151 709h-145l31 147h145l64 299h182l-64 -299h171l-31 -147h-171l-149 -699q-3 -15 -3 -27q0 -34 25 -48q19 -11 68 -11q13 0 28 0.5t36 2.5l-30 -142q-33 -9 -67.5 -13t-73.5 -4q-126 1 -158 65q-19 38 -18 89q0 36 9 78z" />
<glyph unicode="u" d="M199 124q-14 40 -14 94q0 55 15 125l155 728h184l-151 -711q-9 -44 -9 -79q0 -31 7 -55q27 -96 158 -96q188 0 292 168q56 90 89 247l112 526h180l-227 -1071h-170l35 158q-48 -61 -109 -103q-121 -84 -268 -84q-229 0 -279 153z" />
<glyph unicode="v" horiz-adv-x="1024" d="M238 1071h209l101 -872l484 872h197l-631 -1071h-192z" />
<glyph unicode="w" horiz-adv-x="1479" d="M245 1071h197l27 -844l388 844h202l32 -839l397 839h180l-538 -1071h-187l-42 829l-387 -829h-187z" />
<glyph unicode="x" horiz-adv-x="1024" d="M11 0l493 549l-247 522h233l166 -377l329 377l218 -5l-471 -517l261 -549h-230l-181 402l-343 -402h-228z" />
<glyph unicode="y" horiz-adv-x="1024" d="M27 -425l35 164q44 -13 64.5 -16t36.5 -3q50 0 77 16.5t48 40.5q7 8 53.5 82t68.5 110l-162 1102h204l102 -872l474 872h199q-60 -103 -269 -470q-156 -276 -259 -450q-244 -410 -327 -500t-239 -90q-38 0 -58 3t-48 11z" />
<glyph unicode="z" horiz-adv-x="1024" d="M52 0l30 142l798 768h-588l34 161h830l-31 -147l-793 -763h650l-34 -161h-896z" />
<glyph unicode="{" horiz-adv-x="684" d="M59 483l24 114q182 21 266 131q47 61 71 175l35 163q40 188 145 298t357 131l-24 -114q-164 -14 -248 -142q-46 -70 -72 -194l-24 -112q-32 -150 -86 -230q-98 -145 -295 -163q189 -17 225 -168q19 -83 -11 -226l-33 -151q-32 -154 32 -219.5t155 -76.5l-25 -117 q-175 18 -273 104.5t-56 284.5l44 206q23 109 3 172q-38 115 -210 134z" />
<glyph unicode="|" horiz-adv-x="532" d="M144 0l316 1490h171l-316 -1490h-171z" />
<glyph unicode="}" horiz-adv-x="684" d="M-46 -418l25 117q108 14 194.5 85.5t115.5 210.5l33 151q30 144 85 226q100 151 294 168q-188 18 -224 162q-20 80 12 231l24 112q28 132 11 200q-30 122 -189 136l24 114q254 -21 316 -160q41 -89 3 -269l-35 -163q-23 -112 -3 -174q38 -113 211 -132l-24 -114 q-180 -18 -268 -135q-47 -64 -70 -171l-44 -206q-43 -202 -177 -286t-314 -103z" />
<glyph unicode="~" horiz-adv-x="1196" d="M86 320q34 83 66.5 141.5t98.5 132.5q52 50 106 74t119 24q29 0 60 -5q55 -8 103 -29l204 -87q47 -20 77 -30q50 -15 90 -15q73 0 136.5 57.5t99.5 141.5h116q-56 -142 -154 -259t-247 -117q-45 0 -103 18q-34 11 -99 38l-188 78q-35 15 -73.5 23t-64.5 8q-84 0 -146 -65 q-36 -38 -84 -129h-117z" />
<glyph unicode="&#xa1;" horiz-adv-x="682" d="M147 -399l103 484l187 635h101l-84 -635l-103 -484h-204zM415 862l44 209h204l-44 -209h-204z" />
<glyph unicode="&#xa2;" d="M211.5 206.5q-34.5 140.5 2.5 314.5q55 256 222 418.5t404 162.5q21 0 43.5 -2.5t44.5 -7.5l92 183h83l-98 -202q108 -49 155.5 -141.5t31.5 -225.5h-168q2 59 -16 117q-21 62 -83 87l-390 -785q18 -6 33.5 -9t45.5 -3q136 0 230 94q56 55 112 167h173 q-63 -149 -157 -247q-165 -170 -408 -170q-37 0 -59 3.5t-48 10.5l-106 -208h-85l118 232q-138 71 -172.5 211.5zM396 269q18 -66 70 -111l386 775q-11 4 -26.5 7t-40.5 3q-126 0 -237 -115t-151 -305q-33 -156 -1 -254z" />
<glyph unicode="&#xa3;" d="M91 118q129 79 218.5 174.5t113.5 207.5q7 32 3 75q-3 27 -12 74h-221l23 104h157q-2 -5 -21 62.5t-23 98.5q-4 29 -3 67.5t11 82.5q33 156 186 279.5t390 123.5q223 0 311.5 -122t44.5 -345h-185q32 151 -21.5 229.5t-197.5 78.5q-140 0 -228 -73.5t-110 -178.5 q-11 -52 0 -107t54 -196h328l-23 -104h-283q1 -46 0 -72t-7 -54q-22 -100 -102.5 -197.5t-228.5 -193.5q76 35 147.5 55.5t135.5 20.5q72 0 183 -35.5t148 -35.5q47 0 89 18q27 11 83 46l55 -135q-66 -45 -115 -67q-80 -35 -162 -35q-60 0 -192 46t-214 46q-76 0 -149 -26 q-44 -16 -115 -54z" />
<glyph unicode="&#xa4;" d="M141 315l170 137q-31 54 -39.5 116t6.5 130q18 85 55 147t86 115l-112 135l115 94l109 -137q65 42 129 63.5t133 21.5q83 0 140.5 -22.5t102.5 -64.5l166 139l75 -94l-170 -140q34 -58 43 -121t-6 -137q-13 -58 -46 -121.5t-97 -123.5l110 -137l-115 -95l-108 135 q-66 -43 -132.5 -64.5t-134.5 -21.5q-62 0 -120 18t-118 70l-167 -139zM416 704q-25 -120 42 -206t190 -86q119 0 223.5 83.5t130.5 208.5q27 125 -42 209t-188 84q-122 0 -226 -85t-130 -208z" />
<glyph unicode="&#xa5;" d="M199 471l28 135h339l-81 218h-258l29 136h180l-169 445h223l222 -675l510 675h223l-359 -445h175l-29 -136h-253l-176 -218h349l-28 -135h-373l-100 -471h-189l100 471h-363z" />
<glyph unicode="&#xa6;" horiz-adv-x="532" d="M144 0l122 578h171l-122 -578h-171zM337 912l123 578h171l-123 -578h-171z" />
<glyph unicode="&#xa7;" d="M154 -48h178q-13 -98 5 -144q30 -83 149 -83q78 0 130 21q96 39 119 147q10 46 -9 86q-11 22 -35 46q-13 13 -89 73q-44 35 -84 67l-153 119q-91 71 -125 123q-60 89 -36 200q20 96 95.5 173.5t183.5 136.5q-35 40 -49 86q-15 58 -1 123q31 145 151.5 244.5t283.5 99.5 q240 0 297 -159q31 -83 5 -216h-175q13 95 -3 140q-30 82 -148 82q-94 0 -152.5 -44.5t-74.5 -118.5q-9 -43 2 -77.5t42 -60.5q64 -51 230 -157q296 -188 251 -398q-25 -119 -116 -208q-52 -51 -164 -121q42 -49 58.5 -107t2.5 -125q-28 -135 -154 -233.5t-304 -98.5 q-235 0 -297 152q-35 82 -14 232zM383 562q12 -61 71 -105l323 -242q66 34 102 68q62 59 81 146q16 78 -25 133q-26 34 -114 96l-253 178q-66 -32 -100 -62q-65 -56 -82 -136q-9 -43 -3 -76z" />
<glyph unicode="&#xa8;" horiz-adv-x="682" d="M344 1237l45 208h187l-45 -208h-187zM674 1237l45 208h187l-45 -208h-187z" />
<glyph unicode="&#xa9;" horiz-adv-x="1509" d="M174 737q65 304 325 518q261 214 566 214t474 -214q170 -214 105 -518q-65 -305 -326 -521q-260 -216 -565 -216t-475 216q-169 216 -104 521zM281 737q-56 -264 87 -450q144 -186 406 -186t486 186q221 186 277 450q56 262 -88 447q-143 186 -405 186q-261 0 -485 -186 q-222 -185 -278 -447zM530 742q39 183 170.5 306t301.5 123q107 0 184 -43q133 -77 108 -256h-121q7 75 -35.5 130t-145.5 55q-145 0 -237 -130q-60 -83 -81 -179q-29 -137 19 -230.5t176 -93.5q82 0 146 43.5t104 126.5h121q-52 -135 -162 -209.5t-241 -74.5 q-165 0 -256.5 118t-50.5 314z" />
<glyph unicode="&#xaa;" horiz-adv-x="758" d="M276 1021q22 106 122 158q55 30 140 41l163 22q26 4 45.5 14.5t26.5 43.5q11 53 -14.5 78t-98.5 25q-72 0 -109.5 -28.5t-53.5 -76.5h-128q30 101 104.5 156t230.5 55q155 0 201 -72q30 -48 11 -134l-66 -315q-5 -21 0 -33t34 -12q6 0 34 2l-22 -106q-23 -6 -44 -9 t-43 -3q-52 0 -71.5 28.5t-14.5 73.5q-63 -59 -136.5 -80.5t-131.5 -21.5q-111 0 -153.5 59t-25.5 135zM427 1023q-9 -41 11.5 -64.5t71.5 -23.5q82 0 140.5 37t76.5 120l16 76q-51 -21 -167 -36q-131 -26 -149 -109z" />
<glyph unicode="&#xab;" d="M292 464l41 190l375 251l-38 -180l-251 -166l180 -166l-38 -180zM711 464l41 190l376 251l-38 -180l-252 -166l181 -166l-38 -180z" />
<glyph unicode="&#xac;" horiz-adv-x="1196" d="M231 654l35 168h1043l-127 -600h-168l92 432h-875z" />
<glyph unicode="&#xad;" horiz-adv-x="682" d="M186 478l39 185h502l-39 -185h-502z" />
<glyph unicode="&#xae;" horiz-adv-x="1509" d="M177 737q65 303 325 518q260 214 563 214q305 0 474 -214q170 -214 105 -518q-65 -305 -326 -521q-260 -216 -565 -216t-474 216q-167 215 -102 521zM279 737q-56 -264 88 -450t407 -186t487 186q223 186 279 450q56 262 -89 447q-145 186 -407 186q-261 0 -486 -186 q-223 -185 -279 -447zM528 336l171 806h282q150 0 214 -29q114 -52 82 -204q-23 -108 -113 -159q-48 -27 -125 -39q91 -15 121.5 -79t17.5 -125l-12 -59q-6 -28 -11 -60t-2 -42l3 -10h-133q0 4 -0.5 8t0.5 9l2 26l14 64q29 140 -37 185q-39 26 -152 26h-112l-68 -318h-142z M759 753h128q90 0 138 18q90 33 110 126q19 88 -28 118t-165 30h-121z" />
<glyph unicode="&#xaf;" horiz-adv-x="682" d="M293 1282l23 118h640l-23 -118h-640z" />
<glyph unicode="&#xb0;" horiz-adv-x="819" d="M350 1127q27 128 135.5 216t232.5 88q127 0 195 -87.5t42 -213.5q-28 -130 -137 -216.5t-229 -86.5q-133 0 -198.5 90t-40.5 210zM459 1128q-16 -78 28.5 -135t124.5 -57q77 0 146.5 56.5t87.5 137.5q16 78 -28.5 135t-123.5 57t-148.5 -56.5t-86.5 -137.5z" />
<glyph unicode="&#xb1;" horiz-adv-x="1124" d="M92 0l34 161h1043l-34 -161h-1043zM210 557l33 158h436l71 330h171l-71 -330h436l-33 -158h-436l-68 -318h-171l68 318h-436z" />
<glyph unicode="&#xb2;" horiz-adv-x="682" d="M132 571q31 145 120 234t204 141q164 74 216.5 110t64.5 96q14 66 -14.5 106t-109.5 40t-123.5 -51t-59.5 -124h-157q32 150 134.5 229.5t239.5 79.5q139 0 209 -67t43 -196q-25 -119 -99.5 -180t-221.5 -125q-187 -77 -233 -153h457l-30 -140h-640z" />
<glyph unicode="&#xb3;" horiz-adv-x="682" d="M183 832h147q-10 -82 5 -114q25 -55 126 -55q97 0 147.5 42t63.5 103q21 96 -75 128q-51 17 -138 14l26 121q96 -1 140 13q79 25 96 105q10 48 -15.5 83.5t-97.5 35.5q-69 0 -120.5 -37.5t-71.5 -126.5h-145q29 136 127 211.5t235 75.5q132 0 197.5 -67t44.5 -165 q-14 -69 -55 -114t-103 -61q80 -21 103.5 -75.5t4.5 -141.5q-27 -127 -140 -196t-248 -69q-129 0 -206.5 65t-47.5 225z" />
<glyph unicode="&#xb4;" horiz-adv-x="682" d="M411 1213l210 289h222l-294 -289h-138z" />
<glyph unicode="&#xb5;" horiz-adv-x="1180" d="M-165 -422l640 1491h185l-324 -757q-8 -17 -12 -29.5t-7 -27.5q-11 -48 3 -76q24 -51 121 -51q145 0 268 106.5t184 248.5l253 586h183l-457 -1069h-173l80 180q-32 -44 -117 -105q-144 -103 -294 -103q-47 0 -92.5 17t-64.5 39l-192 -450h-184z" />
<glyph unicode="&#xb6;" horiz-adv-x="1100" d="M200 995q31 148 128 264q175 210 473 210h576l-25 -116h-125l-365 -1716h-147l365 1716h-231l-365 -1716h-147l189 889q-212 3 -287.5 148.5t-38.5 320.5z" />
<glyph unicode="&#xb7;" horiz-adv-x="569" d="M300 701q11 53 56 90.5t99 37.5t83 -37.5t18 -90.5q-12 -53 -57.5 -90.5t-98.5 -37.5t-82.5 37.5t-17.5 90.5z" />
<glyph unicode="&#xb8;" horiz-adv-x="682" d="M48 -418l52 81q35 -14 54 -20q37 -11 70 -11q37 0 68 11q56 21 68 76q7 32 -14 55.5t-65 23.5q-22 0 -41 -4t-45 -13l-25 41l169 178h97l-124 -128q31 9 77 9q70 0 107 -40.5t21 -115.5q-16 -76 -87.5 -131t-195.5 -55q-53 0 -107 15q-31 8 -79 28z" />
<glyph unicode="&#xb9;" horiz-adv-x="682" d="M332 1154l23 107q128 11 172 32q69 32 114 133h131l-182 -855h-161l124 583h-221z" />
<glyph unicode="&#xba;" horiz-adv-x="748" d="M296 1163q24 113 99 205q117 141 307 141q143 0 213 -85t34 -253q-31 -149 -135.5 -246.5t-266.5 -97.5q-185 0 -239 134q-37 88 -12 202zM440 1158q-19 -89 9 -152t118 -63q112 0 179 95q40 57 57 134q23 110 -15.5 165.5t-110.5 55.5q-88 0 -150.5 -60.5t-86.5 -174.5z " />
<glyph unicode="&#xbb;" d="M239 213l38 180l246 166l-175 166l38 180l269 -251l-41 -190zM658 213l38 180l246 166l-175 166l38 180l270 -251l-41 -190z" />
<glyph unicode="&#xbc;" horiz-adv-x="1708" d="M375 -38l1190 1469h135l-1190 -1469h-135zM408 1154l23 107q127 11 172 32q69 32 114 133h131l-182 -855h-161l124 583h-221zM991 194l28 135l540 531h135l-115 -543h114l-26 -123h-114l-41 -194h-154l41 194h-408zM1152 317h270l73 344z" />
<glyph unicode="&#xbd;" horiz-adv-x="1708" d="M263 -38l1162 1469h135l-1162 -1469h-135zM335 1154l23 107q126 11 171 32q71 33 115 133h130l-182 -855h-161l124 583h-220zM950 0q39 134 108 221t215 153q165 74 217 111t65 96q15 70 -15.5 108t-108.5 38q-90 0 -138 -65q-27 -37 -46 -110h-156q26 125 119.5 216.5 t259.5 91.5q138 0 205.5 -69.5t42.5 -186.5q-22 -103 -85.5 -168t-211.5 -132q-212 -89 -259 -165h457l-29 -139h-640z" />
<glyph unicode="&#xbe;" horiz-adv-x="1708" d="M251 832h147q-15 -72 9 -118q26 -51 122 -51t147 41t64 101q20 98 -74 131q-51 17 -138 14l26 121q97 -1 141 13q78 26 96 107q9 43 -15 80t-100 37q-69 0 -119.5 -37t-72.5 -127h-144q30 144 131 215.5t231 71.5q131 0 196.5 -67t44.5 -165q-12 -60 -53 -108.5 t-105 -66.5q93 -32 113 -105q10 -41 -3 -105q-29 -133 -141 -202.5t-248 -69.5q-192 0 -244 119q-31 77 -11 171zM412 -38l1209 1469h136l-1209 -1469h-136zM1010 194l28 135l540 531h135l-115 -543h114l-26 -123h-114l-41 -194h-154l41 194h-408zM1171 317h270l73 344z" />
<glyph unicode="&#xbf;" horiz-adv-x="1251" d="M180 -25q22 101 85 177t183 175l57 47q110 91 145 152t60 175h178q-33 -152 -78 -224t-213 -217l-96 -83q-63 -54 -91 -101t-37 -90q-22 -102 27.5 -172t186.5 -70q151 0 239 111q49 64 91 211h173q-49 -247 -205 -363t-341 -116t-293.5 103t-70.5 285zM729 867l44 209 h199l-44 -209h-199z" />
<glyph unicode="&#xc0;" horiz-adv-x="1366" d="M30 0l865 1469h225l221 -1469h-218l-56 440h-581l-252 -440h-204zM577 602h460l-85 649zM879 1874h223l158 -289h-137z" />
<glyph unicode="&#xc1;" horiz-adv-x="1366" d="M30 0l865 1469h225l221 -1469h-218l-56 440h-581l-252 -440h-204zM577 602h460l-85 649zM848 1585l210 289h222l-294 -289h-138z" />
<glyph unicode="&#xc2;" horiz-adv-x="1366" d="M30 0l865 1469h225l221 -1469h-218l-56 440h-581l-252 -440h-204zM577 602h460l-85 649zM777 1585l249 289h190l158 -289h-164l-104 192l-166 -192h-163z" />
<glyph unicode="&#xc3;" horiz-adv-x="1366" d="M30 0l865 1469h225l221 -1469h-218l-56 440h-581l-252 -440h-204zM577 602h460l-85 649zM699 1604q25 79 64 129q70 92 182 92q34 0 74 -10t106 -40q25 -12 47.5 -19t46.5 -7q56 0 86 35q15 19 26 57h105q-40 -127 -107.5 -175t-138.5 -48q-22 0 -54 8t-57 18l-50 19 q-43 17 -72 25.5t-57 8.5q-35 0 -61 -23t-42 -70h-98z" />
<glyph unicode="&#xc4;" horiz-adv-x="1366" d="M30 0l865 1469h225l221 -1469h-218l-56 440h-581l-252 -440h-204zM577 602h460l-85 649zM791 1609l45 208h187l-45 -208h-187zM1121 1609l45 208h187l-45 -208h-187z" />
<glyph unicode="&#xc5;" horiz-adv-x="1366" d="M30 0l865 1469h225l221 -1469h-218l-56 440h-581l-252 -440h-204zM577 602h460l-85 649zM850 1755q20 86 95.5 147.5t161.5 61.5t133 -61.5t27 -147.5q-23 -86 -99 -147.5t-162 -61.5t-132.5 61.5t-23.5 147.5zM933 1755q-13 -52 15 -89t79 -37q52 0 98 37t59 89 q12 52 -17 89t-81 37q-51 0 -96 -37t-57 -89z" />
<glyph unicode="&#xc6;" horiz-adv-x="2048" d="M16 0l909 1469h1316l-37 -175h-796l-96 -451h730l-36 -166h-730l-106 -502h815l-37 -175h-1012l92 436h-541l-255 -436h-216zM592 604h472l147 694h-199z" />
<glyph unicode="&#xc7;" horiz-adv-x="1479" d="M249 750q69 325 285 533q234 226 561 226q279 0 402 -147t100 -334h-194q-3 142 -84 225t-259 83q-217 0 -382.5 -152.5t-232.5 -467.5q-55 -258 31.5 -418.5t325.5 -160.5q220 0 371 169q79 89 140 234h194q-75 -232 -254 -389q-216 -189 -492 -189l-85 -90q31 9 77 9 q70 0 107 -40.5t21 -115.5q-16 -76 -87.5 -131t-195.5 -55q-53 0 -107 15q-31 8 -80 28l52 81q35 -14 55 -20q38 -11 71 -11q37 0 67 11q56 21 68 76q7 32 -14.5 55.5t-65.5 23.5q-22 0 -40.5 -4t-44.5 -13l-26 41l131 140q-175 0 -320 139q-186 221 -95 649z" />
<glyph unicode="&#xc8;" horiz-adv-x="1366" d="M175 0l312 1469h1071l-39 -180h-877l-94 -446h811l-36 -170h-811l-106 -498h892l-37 -175h-1086zM911 1874h223l158 -289h-137z" />
<glyph unicode="&#xc9;" horiz-adv-x="1366" d="M175 0l312 1469h1071l-39 -180h-877l-94 -446h811l-36 -170h-811l-106 -498h892l-37 -175h-1086zM890 1585l210 289h222l-294 -289h-138z" />
<glyph unicode="&#xca;" horiz-adv-x="1366" d="M175 0l312 1469h1071l-39 -180h-877l-94 -446h811l-36 -170h-811l-106 -498h892l-37 -175h-1086zM809 1585l249 289h190l158 -289h-164l-104 192l-166 -192h-163z" />
<glyph unicode="&#xcb;" horiz-adv-x="1366" d="M175 0l312 1469h1071l-39 -180h-877l-94 -446h811l-36 -170h-811l-106 -498h892l-37 -175h-1086zM813 1609l45 208h187l-45 -208h-187zM1143 1609l45 208h187l-45 -208h-187z" />
<glyph unicode="&#xcc;" horiz-adv-x="569" d="M184 0l312 1469h201l-312 -1469h-201zM400 1873h223l120 -289h-137z" />
<glyph unicode="&#xcd;" horiz-adv-x="569" d="M201 0l312 1469h201l-312 -1469h-201zM443 1581l244 289h222l-328 -289h-138z" />
<glyph unicode="&#xce;" horiz-adv-x="569" d="M201 0l312 1469h201l-312 -1469h-201zM330 1589l265 289h190l142 -289h-164l-94 192l-176 -192h-163z" />
<glyph unicode="&#xcf;" horiz-adv-x="569" d="M201 0l312 1469h201l-312 -1469h-201zM373 1605l44 208h187l-44 -208h-187zM703 1605l44 208h187l-44 -208h-187z" />
<glyph unicode="&#xd0;" horiz-adv-x="1479" d="M165 0l146 687h-132l37 178h132l129 604h562q365 0 477 -251q82 -183 24 -459q-52 -244 -186 -436q-224 -323 -596 -323h-593zM401 170h355q101 0 170 21q124 39 222 150q78 89 133 228q33 83 48 154q58 273 -18.5 424t-317.5 151h-353l-92 -433h419l-37 -178h-419z" />
<glyph unicode="&#xd1;" horiz-adv-x="1479" d="M156 0l312 1469h235l489 -1190l253 1190h189l-312 -1469h-223l-501 1189l-252 -1189h-190zM749 1604q25 79 64 129q70 92 182 92q34 0 74 -10t106 -40q25 -12 47.5 -19t46.5 -7q56 0 86 35q15 19 26 57h105q-40 -127 -107.5 -175t-138.5 -48q-22 0 -54 8t-57 18l-50 19 q-43 17 -72 25.5t-57 8.5q-35 0 -61 -23t-42 -70h-98z" />
<glyph unicode="&#xd2;" horiz-adv-x="1593" d="M234 727q63 298 256 510q248 272 620 272q389 0 523 -250q105 -195 40 -499q-70 -329 -283 -547q-251 -256 -614 -256q-339 0 -485 224q-127 216 -57 546zM437 714q-52 -244 36 -411.5t365 -167.5q263 0 420.5 188.5t209.5 433.5q55 259 -46.5 417t-336.5 158 q-228 0 -405.5 -156.5t-242.5 -461.5zM1007 1914h223l158 -289h-137z" />
<glyph unicode="&#xd3;" horiz-adv-x="1593" d="M234 727q63 298 256 510q248 272 620 272q389 0 523 -250q105 -195 40 -499q-70 -329 -283 -547q-251 -256 -614 -256q-339 0 -485 224q-127 216 -57 546zM437 714q-52 -244 36 -411.5t365 -167.5q263 0 420.5 188.5t209.5 433.5q55 259 -46.5 417t-336.5 158 q-228 0 -405.5 -156.5t-242.5 -461.5zM966 1625l210 289h222l-294 -289h-138z" />
<glyph unicode="&#xd4;" horiz-adv-x="1593" d="M234 727q63 298 256 510q248 272 620 272q389 0 523 -250q105 -195 40 -499q-70 -329 -283 -547q-251 -256 -614 -256q-339 0 -485 224q-127 216 -57 546zM437 714q-52 -244 36 -411.5t365 -167.5q263 0 420.5 188.5t209.5 433.5q55 259 -46.5 417t-336.5 158 q-228 0 -405.5 -156.5t-242.5 -461.5zM895 1625l249 289h190l158 -289h-164l-104 192l-166 -192h-163z" />
<glyph unicode="&#xd5;" horiz-adv-x="1593" d="M234 727q63 298 256 510q248 272 620 272q389 0 523 -250q105 -195 40 -499q-70 -329 -283 -547q-251 -256 -614 -256q-339 0 -485 224q-127 216 -57 546zM437 714q-52 -244 36 -411.5t365 -167.5q263 0 420.5 188.5t209.5 433.5q55 259 -46.5 417t-336.5 158 q-228 0 -405.5 -156.5t-242.5 -461.5zM817 1644q25 79 64 129q70 92 182 92q34 0 74 -10t106 -40q25 -12 47.5 -19t46.5 -7q56 0 86 35q15 19 26 57h105q-40 -127 -107.5 -175t-138.5 -48q-22 0 -54 8t-57 18l-50 19q-43 17 -72 25.5t-57 8.5q-35 0 -61 -23t-42 -70h-98z " />
<glyph unicode="&#xd6;" horiz-adv-x="1593" d="M234 727q63 298 256 510q248 272 620 272q389 0 523 -250q105 -195 40 -499q-70 -329 -283 -547q-251 -256 -614 -256q-339 0 -485 224q-127 216 -57 546zM437 714q-52 -244 36 -411.5t365 -167.5q263 0 420.5 188.5t209.5 433.5q55 259 -46.5 417t-336.5 158 q-228 0 -405.5 -156.5t-242.5 -461.5zM943 1658l45 208h187l-45 -208h-187zM1273 1658l45 208h187l-45 -208h-187z" />
<glyph unicode="&#xd7;" horiz-adv-x="1196" d="M146 144l460 379l-299 380l144 118l298 -379l461 379l95 -118l-460 -380l299 -379l-147 -121l-299 379l-460 -379z" />
<glyph unicode="&#xd8;" horiz-adv-x="1593" d="M71 26l213 180q-59 107 -70 240.5t20 280.5q65 304 267 520q245 263 600 263q177 0 291.5 -44.5t179.5 -121.5l189 165l51 -61l-193 -173q42 -70 66 -177q29 -147 -12 -338q-77 -364 -330 -586q-246 -217 -559 -217q-187 0 -310 63q-79 40 -144 117l-206 -173zM416.5 523 q-0.5 -96 35.5 -175l955 846q-54 59 -105 87q-92 51 -224 51q-225 0 -400.5 -157.5t-240.5 -460.5q-20 -95 -20.5 -191zM497 279q52 -70 126 -107t217 -37q268 0 447 224q132 166 181 398q28 130 13 239q-8 59 -34 129z" />
<glyph unicode="&#xd9;" horiz-adv-x="1479" d="M291 227q-42 146 15 417l176 825h202l-193 -908q-34 -160 3 -266q55 -160 266 -160q253 0 381 173q69 94 103 253l193 908h202l-176 -825q-57 -271 -161 -417q-191 -266 -563 -266t-448 266zM952 1874h223l158 -289h-137z" />
<glyph unicode="&#xda;" horiz-adv-x="1479" d="M291 227q-42 146 15 417l176 825h202l-193 -908q-34 -160 3 -266q55 -160 266 -160q253 0 381 173q69 94 103 253l193 908h202l-176 -825q-57 -271 -161 -417q-191 -266 -563 -266t-448 266zM921 1585l210 289h222l-294 -289h-138z" />
<glyph unicode="&#xdb;" horiz-adv-x="1479" d="M291 227q-42 146 15 417l176 825h202l-193 -908q-34 -160 3 -266q55 -160 266 -160q253 0 381 173q69 94 103 253l193 908h202l-176 -825q-57 -271 -161 -417q-191 -266 -563 -266t-448 266zM840 1585l249 289h190l158 -289h-164l-104 192l-166 -192h-163z" />
<glyph unicode="&#xdc;" horiz-adv-x="1479" d="M291 227q-42 146 15 417l176 825h202l-193 -908q-34 -160 3 -266q55 -160 266 -160q253 0 381 173q69 94 103 253l193 908h202l-176 -825q-57 -271 -161 -417q-191 -266 -563 -266t-448 266zM827 1600l45 208h187l-45 -208h-187zM1157 1600l45 208h187l-45 -208h-187z " />
<glyph unicode="&#xdd;" horiz-adv-x="1366" d="M354 1469h232l272 -706l572 706h233l-742 -877l-125 -592h-199l125 592zM861 1585l210 289h222l-294 -289h-138z" />
<glyph unicode="&#xde;" horiz-adv-x="1366" d="M128 0l311 1467h194l-49 -234h456q227 0 312.5 -116.5t44.5 -307.5q-35 -168 -180.5 -294t-363.5 -126h-449l-82 -389h-194zM441 564h390q129 1 200 34q129 58 164 222q14 69 -6 129q-38 111 -188 111h-454z" />
<glyph unicode="&#xdf;" horiz-adv-x="1251" d="M199 0l217 1024q61 286 238 397q116 70 268 70q207 0 297 -100.5t55 -265.5q-25 -116 -87 -192t-144 -113q86 -23 132 -99q63 -96 26 -270q-42 -198 -184.5 -339t-348.5 -141q-48 0 -71 2t-57 8l34 156q23 -3 42.5 -5t44.5 -2q108 0 211 68t140 242q36 169 -63 241 q-61 44 -156 44q-17 0 -40 -2t-47 -5l34 161q18 -3 27 -4t20 -1q145 0 216.5 73.5t88.5 154.5q21 102 -25.5 167t-166.5 65q-155 0 -232 -112q-43 -63 -72 -198l-217 -1024h-180z" />
<glyph unicode="&#xe0;" d="M141 281q32 149 142.5 231t265.5 101l294 36q64 8 95 52q17 24 26 69q20 92 -37 133.5t-179 41.5q-141 0 -216 -76q-42 -42 -69 -125h-168q47 198 187 275.5t303 77.5q189 0 291 -72t70 -224l-131 -617q-6 -28 1.5 -45t44.5 -17q12 0 27.5 1.5t33.5 4.5l-29 -133 q-44 -12 -66.5 -15t-60.5 -3q-93 0 -121 66q-15 35 -10 99q-71 -72 -185 -125t-238 -53q-149 0 -224.5 90.5t-46.5 226.5zM330 285q-17 -78 30.5 -123t125.5 -45q95 0 194 44q165 73 201 239l30 145q-37 -21 -92 -35t-106 -20l-112 -14q-101 -13 -156 -41q-93 -47 -115 -150 zM681 1502h223l158 -289h-137z" />
<glyph unicode="&#xe1;" d="M141 281q32 149 142.5 231t265.5 101l294 36q64 8 95 52q17 24 26 69q20 92 -37 133.5t-179 41.5q-141 0 -216 -76q-42 -42 -69 -125h-168q47 198 187 275.5t303 77.5q189 0 291 -72t70 -224l-131 -617q-6 -28 1.5 -45t44.5 -17q12 0 27.5 1.5t33.5 4.5l-29 -133 q-44 -12 -66.5 -15t-60.5 -3q-93 0 -121 66q-15 35 -10 99q-71 -72 -185 -125t-238 -53q-149 0 -224.5 90.5t-46.5 226.5zM330 285q-17 -78 30.5 -123t125.5 -45q95 0 194 44q165 73 201 239l30 145q-37 -21 -92 -35t-106 -20l-112 -14q-101 -13 -156 -41q-93 -47 -115 -150 zM650 1213l210 289h222l-294 -289h-138z" />
<glyph unicode="&#xe2;" d="M141 281q32 149 142.5 231t265.5 101l294 36q64 8 95 52q17 24 26 69q20 92 -37 133.5t-179 41.5q-141 0 -216 -76q-42 -42 -69 -125h-168q47 198 187 275.5t303 77.5q189 0 291 -72t70 -224l-131 -617q-6 -28 1.5 -45t44.5 -17q12 0 27.5 1.5t33.5 4.5l-29 -133 q-44 -12 -66.5 -15t-60.5 -3q-93 0 -121 66q-15 35 -10 99q-71 -72 -185 -125t-238 -53q-149 0 -224.5 90.5t-46.5 226.5zM330 285q-17 -78 30.5 -123t125.5 -45q95 0 194 44q165 73 201 239l30 145q-37 -21 -92 -35t-106 -20l-112 -14q-101 -13 -156 -41q-93 -47 -115 -150 zM557 1209l249 289h190l158 -289h-164l-104 192l-166 -192h-163z" />
<glyph unicode="&#xe3;" d="M141 281q32 149 142.5 231t265.5 101l294 36q64 8 95 52q17 24 26 69q20 92 -37 133.5t-179 41.5q-141 0 -216 -76q-42 -42 -69 -125h-168q47 198 187 275.5t303 77.5q189 0 291 -72t70 -224l-131 -617q-6 -28 1.5 -45t44.5 -17q12 0 27.5 1.5t33.5 4.5l-29 -133 q-44 -12 -66.5 -15t-60.5 -3q-93 0 -121 66q-15 35 -10 99q-71 -72 -185 -125t-238 -53q-149 0 -224.5 90.5t-46.5 226.5zM330 285q-17 -78 30.5 -123t125.5 -45q95 0 194 44q165 73 201 239l30 145q-37 -21 -92 -35t-106 -20l-112 -14q-101 -13 -156 -41q-93 -47 -115 -150 zM501 1232q25 79 64 129q70 92 182 92q34 0 74 -10t106 -40q25 -12 47.5 -19t46.5 -7q56 0 86 35q15 19 26 57h105q-40 -127 -107.5 -175t-138.5 -48q-22 0 -54 8t-57 18l-50 19q-43 17 -72 25.5t-57 8.5q-35 0 -61 -23t-42 -70h-98z" />
<glyph unicode="&#xe4;" d="M141 281q32 149 142.5 231t265.5 101l294 36q64 8 95 52q17 24 26 69q20 92 -37 133.5t-179 41.5q-141 0 -216 -76q-42 -42 -69 -125h-168q47 198 187 275.5t303 77.5q189 0 291 -72t70 -224l-131 -617q-6 -28 1.5 -45t44.5 -17q12 0 27.5 1.5t33.5 4.5l-29 -133 q-44 -12 -66.5 -15t-60.5 -3q-93 0 -121 66q-15 35 -10 99q-71 -72 -185 -125t-238 -53q-149 0 -224.5 90.5t-46.5 226.5zM330 285q-17 -78 30.5 -123t125.5 -45q95 0 194 44q165 73 201 239l30 145q-37 -21 -92 -35t-106 -20l-112 -14q-101 -13 -156 -41q-93 -47 -115 -150 zM583 1237l45 208h187l-45 -208h-187zM913 1237l45 208h187l-45 -208h-187z" />
<glyph unicode="&#xe5;" d="M141 281q32 149 142.5 231t265.5 101l294 36q64 8 95 52q17 24 26 69q20 92 -37 133.5t-179 41.5q-141 0 -216 -76q-42 -42 -69 -125h-168q47 198 187 275.5t303 77.5q189 0 291 -72t70 -224l-131 -617q-6 -28 1.5 -45t44.5 -17q12 0 27.5 1.5t33.5 4.5l-29 -133 q-44 -12 -66.5 -15t-60.5 -3q-93 0 -121 66q-15 35 -10 99q-71 -72 -185 -125t-238 -53q-149 0 -224.5 90.5t-46.5 226.5zM330 285q-17 -78 30.5 -123t125.5 -45q95 0 194 44q165 73 201 239l30 145q-37 -21 -92 -35t-106 -20l-112 -14q-101 -13 -156 -41q-93 -47 -115 -150 zM675 1417q20 86 95.5 147.5t161.5 61.5t133 -61.5t27 -147.5q-23 -86 -99 -147.5t-162 -61.5t-132.5 61.5t-23.5 147.5zM758 1417q-13 -52 15 -89t79 -37q52 0 98 37t59 89q12 52 -17 89t-81 37q-51 0 -96 -37t-57 -89z" />
<glyph unicode="&#xe6;" horiz-adv-x="1821" d="M130 272q38 178 178 266q89 56 221 73l293 38q53 7 84 36t43 82q18 86 -28.5 131t-169.5 45q-100 0 -167 -32q-112 -59 -136 -170h-173q58 226 243 309q106 47 274 47q133 0 217 -49q71 -43 98 -112q76 77 173.5 119t208.5 42q117 0 207 -41.5t135 -138.5 q42 -80 39.5 -184.5t-34.5 -254.5h-787q-30 -166 26.5 -263t195.5 -97q130 0 210 57t128 161h182q-26 -80 -102 -164.5t-149 -126.5q-80 -46 -156 -63.5t-153 -17.5q-147 0 -244 76q-88 77 -101 152q-107 -121 -223 -174.5t-238 -53.5q-172 0 -248 86t-47 222zM318 287 q-18 -84 36 -129t140 -45q49 0 119 25t136 77q59 46 84 94q16 30 36 101l28 135q-28 -17 -54 -26.5t-89 -19.5l-158 -23q-115 -18 -169 -45q-89 -46 -109 -144zM1081 621h593q31 157 -35.5 237.5t-186.5 80.5t-224 -80.5t-147 -237.5z" />
<glyph unicode="&#xe7;" horiz-adv-x="1024" d="M166 506q60 282 230.5 439t382.5 157q181 0 275.5 -88t72.5 -303h-175q5 99 -38 164.5t-169 65.5q-172 0 -282 -168q-71 -109 -105 -269q-35 -161 10 -271t191 -110q112 0 192 68.5t130 187.5h175q-75 -213 -216 -311.5t-300 -98.5l-92 -97q31 9 77 9q70 0 107 -40.5 t21 -115.5q-16 -76 -87.5 -131t-195.5 -55q-53 0 -107 15q-31 8 -80 28l52 81q35 -14 55 -20q38 -11 71 -11q37 0 67 11q56 21 68 76q7 32 -14.5 55.5t-65.5 23.5q-22 0 -40.5 -4t-44.5 -13l-26 41l139 147q-142 0 -224 114q-109 163 -54 423z" />
<glyph unicode="&#xe8;" d="M181 515q55 258 229 419t400 161q114 0 210 -53.5t133 -138.5q37 -81 32 -189q1 -74 -34 -236h-785q-30 -163 21.5 -261.5t202.5 -98.5q141 0 244 93q60 54 95 125h177q-20 -59 -74.5 -131.5t-113.5 -118.5q-99 -80 -226 -108q-69 -16 -151 -16q-200 0 -308 145.5 t-52 407.5zM401 621h595q14 117 -11 187q-46 130 -219 130q-124 0 -227 -89.5t-138 -227.5zM685 1502h223l158 -289h-137z" />
<glyph unicode="&#xe9;" d="M181 515q55 258 229 419t400 161q114 0 210 -53.5t133 -138.5q37 -81 32 -189q1 -74 -34 -236h-785q-30 -163 21.5 -261.5t202.5 -98.5q141 0 244 93q60 54 95 125h177q-20 -59 -74.5 -131.5t-113.5 -118.5q-99 -80 -226 -108q-69 -16 -151 -16q-200 0 -308 145.5 t-52 407.5zM401 621h595q14 117 -11 187q-46 130 -219 130q-124 0 -227 -89.5t-138 -227.5zM654 1213l210 289h222l-294 -289h-138z" />
<glyph unicode="&#xea;" d="M181 515q55 258 229 419t400 161q114 0 210 -53.5t133 -138.5q37 -81 32 -189q1 -74 -34 -236h-785q-30 -163 21.5 -261.5t202.5 -98.5q141 0 244 93q60 54 95 125h177q-20 -59 -74.5 -131.5t-113.5 -118.5q-99 -80 -226 -108q-69 -16 -151 -16q-200 0 -308 145.5 t-52 407.5zM401 621h595q14 117 -11 187q-46 130 -219 130q-124 0 -227 -89.5t-138 -227.5zM561 1213l249 289h190l158 -289h-164l-104 192l-166 -192h-163z" />
<glyph unicode="&#xeb;" d="M181 515q55 258 229 419t400 161q114 0 210 -53.5t133 -138.5q37 -81 32 -189q1 -74 -34 -236h-785q-30 -163 21.5 -261.5t202.5 -98.5q141 0 244 93q60 54 95 125h177q-20 -59 -74.5 -131.5t-113.5 -118.5q-99 -80 -226 -108q-69 -16 -151 -16q-200 0 -308 145.5 t-52 407.5zM401 621h595q14 117 -11 187q-46 130 -219 130q-124 0 -227 -89.5t-138 -227.5zM587 1237l45 208h187l-45 -208h-187zM917 1237l45 208h187l-45 -208h-187z" />
<glyph unicode="&#xec;" horiz-adv-x="569" d="M189 0l226 1066h183l-226 -1066h-183zM406 1502h223l158 -289h-137z" />
<glyph unicode="&#xed;" horiz-adv-x="569" d="M189 0l226 1066h183l-226 -1066h-183zM375 1213l210 289h222l-294 -289h-138z" />
<glyph unicode="&#xee;" horiz-adv-x="569" d="M189 0l226 1066h183l-226 -1066h-183zM294 1213l249 289h190l158 -289h-164l-104 192l-166 -192h-163z" />
<glyph unicode="&#xef;" horiz-adv-x="569" d="M189 0l226 1066h183l-226 -1066h-183zM298 1237l45 208h187l-45 -208h-187zM628 1237l45 208h187l-45 -208h-187z" />
<glyph unicode="&#xf0;" d="M172 525q56 263 219.5 407t360.5 144q73 0 117 -13q42 -12 76 -37q-39 89 -81 146t-131 160l-185 -112l-65 67l189 116l-123 123l152 97q36 -33 63 -58.5t69 -69.5l173 105l60 -67l-173 -107q183 -217 254 -400q84 -224 32 -470q-53 -248 -222.5 -420.5t-419.5 -172.5 q-237 0 -327 158t-38 404zM355 294q37 -174 241 -174q123 0 234 111t155 319q38 177 -14.5 286.5t-213.5 109.5q-130 0 -239.5 -107t-150.5 -299q-32 -153 -12 -246z" />
<glyph unicode="&#xf1;" d="M132 0l227 1071h171l-32 -152q96 94 189.5 135t197.5 41q228 0 274 -159q26 -87 -8 -249l-146 -687h-183l143 675q21 98 5 158q-27 100 -153 100q-64 0 -108 -13q-79 -22 -149 -88q-56 -53 -81.5 -109.5t-47.5 -161.5l-119 -561h-180zM529 1232q25 79 64 129 q70 92 182 92q34 0 74 -10t106 -40q25 -12 47.5 -19t46.5 -7q56 0 86 35q15 19 26 57h105q-40 -127 -107.5 -175t-138.5 -48q-22 0 -54 8t-57 18l-50 19q-43 17 -72 25.5t-57 8.5q-35 0 -61 -23t-42 -70h-98z" />
<glyph unicode="&#xf2;" d="M167 512q58 270 229 430t402 160q207 0 320.5 -138t56.5 -406q-55 -259 -217 -428t-427 -169q-221 0 -319 149.5t-45 401.5zM353 515q-36 -171 14.5 -285t213.5 -114q179 0 274.5 135.5t130.5 301.5q32 150 4 244q-45 148 -231 148q-165 0 -266.5 -126t-139.5 -304z M672 1502h223l158 -289h-137z" />
<glyph unicode="&#xf3;" d="M167 512q58 270 229 430t402 160q207 0 320.5 -138t56.5 -406q-55 -259 -217 -428t-427 -169q-221 0 -319 149.5t-45 401.5zM353 515q-36 -171 14.5 -285t213.5 -114q179 0 274.5 135.5t130.5 301.5q32 150 4 244q-45 148 -231 148q-165 0 -266.5 -126t-139.5 -304z M641 1213l210 289h222l-294 -289h-138z" />
<glyph unicode="&#xf4;" d="M167 512q58 270 229 430t402 160q207 0 320.5 -138t56.5 -406q-55 -259 -217 -428t-427 -169q-221 0 -319 149.5t-45 401.5zM353 515q-36 -171 14.5 -285t213.5 -114q179 0 274.5 135.5t130.5 301.5q32 150 4 244q-45 148 -231 148q-165 0 -266.5 -126t-139.5 -304z M570 1213l249 289h190l158 -289h-164l-104 192l-166 -192h-163z" />
<glyph unicode="&#xf5;" d="M167 512q58 270 229 430t402 160q207 0 320.5 -138t56.5 -406q-55 -259 -217 -428t-427 -169q-221 0 -319 149.5t-45 401.5zM353 515q-36 -171 14.5 -285t213.5 -114q179 0 274.5 135.5t130.5 301.5q32 150 4 244q-45 148 -231 148q-165 0 -266.5 -126t-139.5 -304z M492 1232q25 79 64 129q70 92 182 92q34 0 74 -10t106 -40q25 -12 47.5 -19t46.5 -7q56 0 86 35q15 19 26 57h105q-40 -127 -107.5 -175t-138.5 -48q-22 0 -54 8t-57 18l-50 19q-43 17 -72 25.5t-57 8.5q-35 0 -61 -23t-42 -70h-98z" />
<glyph unicode="&#xf6;" d="M167 512q58 270 229 430t402 160q207 0 320.5 -138t56.5 -406q-55 -259 -217 -428t-427 -169q-221 0 -319 149.5t-45 401.5zM353 515q-36 -171 14.5 -285t213.5 -114q179 0 274.5 135.5t130.5 301.5q32 150 4 244q-45 148 -231 148q-165 0 -266.5 -126t-139.5 -304z M574 1237l45 208h187l-45 -208h-187zM904 1237l45 208h187l-45 -208h-187z" />
<glyph unicode="&#xf7;" horiz-adv-x="1124" d="M185 438l35 168h1043l-35 -168h-1043zM513 21l47 220h211l-47 -220h-211zM679 803l47 221h211l-47 -221h-211z" />
<glyph unicode="&#xf8;" horiz-adv-x="1251" d="M92 4l157 135q-34 74 -41.5 166t19.5 218q48 227 212 403.5t406 176.5q126 0 211 -46q50 -27 109 -88l156 142l41 -50l-159 -144q44 -92 46 -211q0 -77 -16 -154q-55 -258 -229.5 -425.5t-405.5 -167.5q-110 0 -189 32.5t-120 88.5l-149 -128zM392 373q1 -37 10 -94 l623 564q-19 43 -75 72.5t-132 29.5q-145 0 -258 -121.5t-154 -312.5q-15 -72 -14 -138zM433 213q37 -57 89.5 -77t111.5 -20q189 0 306 178q71 107 100 246q19 90 18 155q0 35 -9 82z" />
<glyph unicode="&#xf9;" d="M199 124q-28 82 1 219l155 728h184l-151 -711q-17 -82 -2 -134q27 -96 158 -96q188 0 292 168q56 90 89 247l112 526h180l-227 -1071h-170l35 158q-48 -61 -109 -103q-121 -84 -268 -84q-229 0 -279 153zM683 1502h223l158 -289h-137z" />
<glyph unicode="&#xfa;" d="M199 124q-28 82 1 219l155 728h184l-151 -711q-17 -82 -2 -134q27 -96 158 -96q188 0 292 168q56 90 89 247l112 526h180l-227 -1071h-170l35 158q-48 -61 -109 -103q-121 -84 -268 -84q-229 0 -279 153zM642 1213l210 289h222l-294 -289h-138z" />
<glyph unicode="&#xfb;" d="M199 124q-28 82 1 219l155 728h184l-151 -711q-17 -82 -2 -134q27 -96 158 -96q188 0 292 168q56 90 89 247l112 526h180l-227 -1071h-170l35 158q-48 -61 -109 -103q-121 -84 -268 -84q-229 0 -279 153zM571 1213l249 289h190l158 -289h-164l-104 192l-166 -192h-163z " />
<glyph unicode="&#xfc;" d="M199 124q-28 82 1 219l155 728h184l-151 -711q-17 -82 -2 -134q27 -96 158 -96q188 0 292 168q56 90 89 247l112 526h180l-227 -1071h-170l35 158q-48 -61 -109 -103q-121 -84 -268 -84q-229 0 -279 153zM575 1237l45 208h187l-45 -208h-187zM905 1237l45 208h187 l-45 -208h-187z" />
<glyph unicode="&#xfd;" horiz-adv-x="1024" d="M27 -425l35 164q44 -13 64.5 -16t36.5 -3q50 0 77 16.5t48 40.5q7 8 53.5 82t68.5 110l-162 1102h204l102 -872l474 872h199q-60 -103 -269 -470q-156 -276 -259 -450q-244 -410 -327 -500t-239 -90q-38 0 -58 3t-48 11zM628 1218l210 289h222l-294 -289h-138z" />
<glyph unicode="&#xfe;" d="M35 -437l402 1892h170l-116 -545q73 76 131 111q103 62 230 62q209 0 294 -150.5t33 -391.5q-64 -302 -232 -444.5t-357 -142.5q-131 0 -202 62q-39 34 -62 93l-116 -546h-175zM394 278q30 -167 219 -167q133 0 234 108.5t142 302.5q29 134 12 225q-32 175 -217 175 q-113 0 -221.5 -92.5t-150.5 -289.5q-36 -171 -18 -262z" />
<glyph unicode="&#xff;" horiz-adv-x="1024" d="M27 -425l35 164q44 -13 64.5 -16t36.5 -3q50 0 77 16.5t48 40.5q7 8 53.5 82t68.5 110l-162 1102h204l102 -872l474 872h199q-60 -103 -269 -470q-156 -276 -259 -450q-244 -410 -327 -500t-239 -90q-38 0 -58 3t-48 11zM527 1237l45 208h187l-45 -208h-187zM857 1237 l45 208h187l-45 -208h-187z" />
<glyph unicode="&#x152;" horiz-adv-x="2048" d="M226 720q62 295 232 505q223 277 561 277q128 0 212 -48.5t120 -133.5l32 149h901l-37 -175h-711l-96 -451h677l-36 -170h-677l-106 -498h715l-37 -175h-907l32 154q-62 -79 -174.5 -133.5t-277.5 -54.5q-222 0 -364 189q-135 208 -59 565zM425 713q-54 -255 17 -420 t301 -165q126 0 252 83t168 279l110 517q32 154 -50 243t-231 89q-255 0 -415 -242q-104 -157 -152 -384z" />
<glyph unicode="&#x153;" horiz-adv-x="1933" d="M182 523q52 247 220 411.5t409 164.5q169 0 263 -81q52 -45 88 -130q85 99 200 154t244 55q119 0 205 -48.5t132 -143.5q42 -87 38 -203q-3 -71 -34 -224h-794q-23 -132 1 -213q43 -154 236 -154q135 0 233 91q55 49 102 134h180q-80 -177 -229 -278t-323 -101 q-118 0 -211.5 47t-149.5 171q-96 -122 -210 -169t-227 -47q-208 0 -320.5 142.5t-52.5 421.5zM364 512q-39 -184 28 -291.5t208 -107.5q113 0 230.5 95t169.5 341q42 197 -25 295.5t-203 98.5q-134 0 -247.5 -106t-160.5 -325zM1184 616h605q17 116 -9 188 q-46 134 -224 134q-89 0 -176 -53q-136 -83 -196 -269z" />
<glyph unicode="&#x178;" horiz-adv-x="1366" d="M354 1469h232l272 -706l572 706h233l-742 -877l-125 -592h-199l125 592zM794 1609l45 208h187l-45 -208h-187zM1124 1609l45 208h187l-45 -208h-187z" />
<glyph unicode="&#x2c6;" horiz-adv-x="682" d="M337 1213l249 289h190l158 -289h-164l-104 192l-166 -192h-163z" />
<glyph unicode="&#x2dc;" horiz-adv-x="682" d="M258 1232q25 79 64 129q70 92 182 92q34 0 74 -10t106 -40q25 -12 47.5 -19t46.5 -7q56 0 86 35q15 19 26 57h105q-40 -127 -107.5 -175t-138.5 -48q-22 0 -54 8t-57 18l-50 19q-43 17 -72 25.5t-57 8.5q-35 0 -61 -23t-42 -70h-98z" />
<glyph unicode="&#x2000;" horiz-adv-x="982" />
<glyph unicode="&#x2001;" horiz-adv-x="1964" />
<glyph unicode="&#x2002;" horiz-adv-x="982" />
<glyph unicode="&#x2003;" horiz-adv-x="1964" />
<glyph unicode="&#x2004;" horiz-adv-x="654" />
<glyph unicode="&#x2005;" horiz-adv-x="491" />
<glyph unicode="&#x2006;" horiz-adv-x="327" />
<glyph unicode="&#x2007;" horiz-adv-x="327" />
<glyph unicode="&#x2008;" horiz-adv-x="245" />
<glyph unicode="&#x2009;" horiz-adv-x="392" />
<glyph unicode="&#x200a;" horiz-adv-x="109" />
<glyph unicode="&#x2010;" horiz-adv-x="682" d="M186 478l39 185h502l-39 -185h-502z" />
<glyph unicode="&#x2011;" horiz-adv-x="682" d="M186 478l39 185h502l-39 -185h-502z" />
<glyph unicode="&#x2012;" horiz-adv-x="682" d="M186 478l39 185h502l-39 -185h-502z" />
<glyph unicode="&#x2013;" d="M99 493l32 147h1147l-32 -147h-1147z" />
<glyph unicode="&#x2014;" horiz-adv-x="2048" d="M345 493l32 147h1565l-32 -147h-1565z" />
<glyph unicode="&#x2018;" horiz-adv-x="455" d="M336 962l43 201q25 119 95 212.5t187 107.5l-20 -94q-57 -9 -97 -62t-55 -123q-1 -6 -1.5 -11.5t-0.5 -12.5h109l-46 -218h-214z" />
<glyph unicode="&#x2019;" horiz-adv-x="455" d="M371 948l20 94q57 9 96.5 62t54.5 122q2 7 2.5 12.5t-0.5 12.5h-109l47 218h214l-43 -201q-27 -128 -99 -217.5t-183 -102.5z" />
<glyph unicode="&#x201a;" horiz-adv-x="455" d="M105 -304l20 95q72 12 118 97q24 45 33 87q2 7 2.5 12.5t0.5 12.5h-109l46 218h214l-43 -202q-25 -119 -92.5 -209t-189.5 -111z" />
<glyph unicode="&#x201c;" horiz-adv-x="682" d="M282 962l43 201q31 148 107 228t174 92l-20 -94q-72 -13 -119 -100q-23 -43 -32 -85q-1 -5 -1 -8.5t-2 -15.5h109l-46 -218h-213zM618 962l43 201q25 119 95 212.5t187 107.5l-20 -94q-57 -9 -97 -62t-54 -122q-2 -6 -2.5 -12t-0.5 -13h109l-46 -218h-214z" />
<glyph unicode="&#x201d;" horiz-adv-x="682" d="M279 948l20 94q78 14 123 110q26 57 30 99h-109l47 218h213l-43 -201q-25 -119 -94 -211.5t-187 -108.5zM615 948l20 94q78 14 122 110q26 57 31 99h-109l47 218h214l-43 -201q-25 -119 -94 -212.5t-188 -107.5z" />
<glyph unicode="&#x201e;" horiz-adv-x="682" d="M13 -304l20 95q64 12 104.5 72.5t49.5 136.5h-109l46 218h213l-43 -202q-25 -115 -88.5 -206t-192.5 -114zM349 -304l20 95q72 12 118 97q24 45 33 87q2 7 2.5 12.5t0.5 12.5h-109l46 218h214l-43 -202q-25 -116 -90.5 -207t-191.5 -113z" />
<glyph unicode="&#x2022;" horiz-adv-x="717" d="M255 734q20 96 95.5 158t171.5 62t145.5 -62t29.5 -158q-21 -96 -97 -159t-172 -63t-145 63t-28 159z" />
<glyph unicode="&#x2026;" horiz-adv-x="2048" d="M237 0l46 220h208l-46 -220h-208zM919 0l46 220h209l-46 -220h-209zM1602 0l46 220h208l-46 -220h-208z" />
<glyph unicode="&#x202f;" horiz-adv-x="392" />
<glyph unicode="&#x2039;" horiz-adv-x="682" d="M278 464l41 190l375 251l-38 -180l-252 -166l181 -166l-38 -180z" />
<glyph unicode="&#x203a;" horiz-adv-x="682" d="M215 213l38 180l251 166l-180 166l38 180l270 -251l-41 -190z" />
<glyph unicode="&#x205f;" horiz-adv-x="491" />
<glyph unicode="&#x20ac;" horiz-adv-x="1524" d="M207 524l72 142h196q7 41 16 84q8 37 18 74h-238l72 142h212q73 183 194 317q204 226 479 226q234 0 332.5 -147t72.5 -334h-163q3 142 -62.5 225t-214.5 83q-183 0 -327 -153q-80 -84 -135 -217h558l-72 -142h-536q-14 -51 -26 -108q-6 -26 -10 -50h580l-72 -142h-523 q-4 -131 37 -227q67 -160 268 -160q185 0 318 169q69 89 125 234h163q-71 -232 -227 -389q-188 -189 -437 -189q-215 0 -328 155q-107 146 -90 407h-252z" />
<glyph unicode="&#x2122;" horiz-adv-x="2048" d="M523 1348l26 121h618l-26 -121h-237l-128 -604h-144l128 604h-237zM1136 744l154 725h207l74 -519l298 519h206l-154 -725h-133l124 585l-325 -585h-116l-78 585l-124 -585h-133z" />
<glyph unicode="&#xe000;" horiz-adv-x="1070" d="M0 1070h1070v-1070h-1070v1070z" />
<glyph unicode="&#xfb01;" horiz-adv-x="1024" d="M177 0l196 924h-149l30 142h149l36 168q28 112 74 164q82 92 262 92q17 0 35 -1t40 -3l-35 -164q-27 2 -39.5 2.5t-23.5 0.5q-82 0 -107 -42.5t-62 -216.5h178l-30 -142h-180l-196 -924h-178zM708 0l226 1066h180l-226 -1066h-180zM976 1265l44 204h180l-44 -204h-180z " />
<glyph unicode="&#xfb02;" horiz-adv-x="1024" d="M177 0l196 924h-149l30 142h149l40 190q26 119 111.5 176.5t208.5 57.5q24 0 43.5 -1.5t43.5 -5.5l-35 -161q-27 2 -39.5 2.5t-23.5 0.5q-76 0 -110 -44q-21 -25 -33 -82l-28 -133h180l-30 -142h-180l-196 -924h-178zM704 0l312 1469h180l-312 -1469h-180z" />
<glyph unicode="&#xfb03;" horiz-adv-x="1593" d="M1270 0l226 1066h183l-226 -1066h-183zM1538 1265l44 204h183l-44 -204h-183zM746 0l196 924h-149l30 142h149l36 168q28 112 74 164q82 92 262 92q17 0 35 -1t40 -3l-35 -164q-27 2 -39.5 2.5t-23.5 0.5q-82 0 -107 -42.5t-62 -216.5h178l-30 -142h-180l-196 -924h-178z M177 0l196 924h-149l30 142h149l36 168q28 112 74 164q82 92 262 92q17 0 35 -1t40 -3l-35 -164q-27 2 -39.5 2.5t-23.5 0.5q-82 0 -107 -42.5t-62 -216.5h178l-30 -142h-180l-196 -924h-178z" />
<glyph unicode="&#xfb04;" horiz-adv-x="1593" d="M1275 0l312 1469h180l-312 -1469h-180zM746 0l196 924h-149l30 142h149l36 168q28 112 74 164q82 92 262 92q17 0 35 -1t40 -3l-35 -164q-27 2 -39.5 2.5t-23.5 0.5q-82 0 -107 -42.5t-62 -216.5h178l-30 -142h-180l-196 -924h-178zM177 0l196 924h-149l30 142h149 l36 168q28 112 74 164q82 92 262 92q17 0 35 -1t40 -3l-35 -164q-27 2 -39.5 2.5t-23.5 0.5q-82 0 -107 -42.5t-62 -216.5h178l-30 -142h-180l-196 -924h-178z" />
</font>
</defs>
</svg>
