<svg xmlns="http://www.w3.org/2000/svg" style="display: none;">
  
    <symbol id="ant-circle-slash" viewBox="0 0 512 512">
      <path d="m256 96c-88 0-160 72-160 160 0 88 72 160 160 160 88 0 160-72 160-160 0-88-72-160-160-160z m0 64c14 0 27 3 39 8l-127 127c-5-12-8-25-8-39 0-53 43-96 96-96z m0 192c-14 0-27-3-39-9l127-126c5 12 8 25 8 39 0 53-43 96-96 96z"/>
    </symbol>
  
    <symbol id="ant-chevron-down" viewBox="0 0 512 512">
      <path d="m352 160l-96 96-96-96-64 64 160 160 160-160z"/>
    </symbol>
  
    <symbol id="ant-chevron-right" viewBox="0 0 512 512">
      <path d="m208 96l-64 64 96 96-96 96 64 64 160-160z"/>
    </symbol>
  
    <symbol id="ant-chevron-left" viewBox="0 0 512 512">
      <path d="m368 160l-64-64-160 160 160 160 64-64-96-96z"/>
    </symbol>
  
    <symbol id="ant-chevron-up" viewBox="0 0 512 512">
      <path d="m256 128l-160 160 64 64 96-96 96 96 64-64z"/>
    </symbol>
  
    <symbol id="ant-gear" viewBox="0 0 512 512">
      <path d="m256 175c-45 0-81 36-81 81 0 45 36 81 81 81 45 0 81-36 81-81 0-45-36-81-81-81z m162 128l-14 35 26 51 3 7-36 36-59-28-35 14-18 55-2 7-51 0-22-62-36-14-51 26-7 3-36-36 28-59-14-35-55-18-7-2 0-51 62-22 14-36-26-51-3-7 36-36 59 28 35-14 18-55 2-7 51 0 22 62 36 14 51-26 7-3 36 36-28 59 14 35 55 18 7 2 0 51z"/>
    </symbol>
  
    <symbol id="ant-x" viewBox="0 0 512 512">
      <path d="m416 160l-64-64-96 96-96-96-64 64 96 96-96 96 64 64 96-96 96 96 64-64-96-96z"/>
    </symbol>
  
    <symbol id="ant-check" viewBox="0 0 512 512">
      <path d="m384 96l-192 192-64-64-64 64 128 128 256-256z"/>
    </symbol>
  
    <symbol id="ant-link-external" viewBox="0 0 512 512">
      <path d="m384 384l-256 0 0-255 64-1 0-64-128 0 0 384 384 0 0-160-64 0z m-128-320l64 64-96 96 64 64 96-96 64 64 0-192z"/>
    </symbol>
  
    <symbol id="ant-plus" viewBox="0 0 512 512">
      <path d="m288 224l0-128-64 0 0 128-128 0 0 64 128 0 0 128 64 0 0-128 128 0 0-64z"/>
    </symbol>
  
    <symbol id="ant-social-twitter" viewBox="0 0 512 512">
      <path d="m453 134c-14 6-30 11-46 12c16-10 29-25 35-44c-15 9-33 16-51 19c-15-15-36-25-59-25c-45 0-81 36-81 81c0 6 1 12 2 18c-67-3-127-35-167-84c-7 12-11 25-11 40c0 28 15 53 36 68c-13-1-25-4-36-11c0 1 0 1 0 2c0 39 28 71 65 79c-7 2-14 3-22 3c-5 0-10-1-15-2c10 32 40 56 76 56c-28 22-63 35-101 35c-6 0-13 0-19-1c36 23 78 36 124 36c149 0 230-123 230-230c0-3 0-7 0-10c16-12 29-26 40-42z"/>
    </symbol>
  
    <symbol id="ant-social-facebook" viewBox="0 0 512 512">
      <path d="m420 72l-328 0c-11 0-20 9-20 20l0 328c0 11 9 20 20 20l177 0l0-142l-48 0l0-56l48 0l0-41c0-48 29-74 71-74c20 0 38 2 43 3l0 49l-29 0c-23 0-28 11-28 27l0 36l55 0l-7 56l-48 0l0 142l94 0c11 0 20-9 20-20l0-328c0-11-9-20-20-20z"/>
    </symbol>
  
    <symbol id="ant-share" viewBox="0 0 512 512">
      <path d="m384 333c21 0 39 7 54 22c15 14 23 33 23 55c0 21-8 39-23 54c-15 15-33 22-54 22c-21 0-39-7-54-22c-15-15-23-33-23-54c0-2 0-5 1-8c0-2 0-4 0-6c0 0-133-80-133-80c-14 11-30 17-47 17c-21 0-39-8-54-23c-15-15-23-33-23-54c0-21 8-39 23-54c15-15 33-23 54-23c18 0 34 5 47 16c0 0 133-80 133-80c0-2 0-4 0-6c-1-3-1-5-1-7c0-21 8-39 23-54c15-15 33-22 54-22c21 0 39 7 54 22c15 14 23 33 23 54c0 22-8 40-23 55c-15 15-33 22-54 22c-18 0-33-5-46-16c0 0-134 80-134 80c0 2 1 7 1 13c0 5-1 10-1 12c0 0 134 80 134 80c12-10 28-15 46-15"/>
    </symbol>
  
    <symbol id="ant-pulse" viewBox="0 0 512 512">
      <path d="m400 256l-86-83-71 99-35-221-100 205-76 0 0 64 115 0 29-58 29 173 115-163 51 48 109 0 0-64z"/>
    </symbol>
  
    <symbol id="ant-chart-line" viewBox="0 0 512 512">
      <path d="m17 290c-14-4-20-13-16-29c3-14 12-20 27-16c0 0 50 12 50 12c0 0-26 41-26 41c0 0-35-8-35-8m455 6c4-4 10-6 16-6c7 1 12 3 16 8c11 11 11 22-1 33c0 0-128 115-128 115c-5 4-10 6-16 6c-5 0-9-2-14-5c0 0-146-112-146-112c0 0-28-8-28-8c0 0 26-40 26-40c0 0 18 4 18 4c4 1 7 2 8 4c0 0 135 104 135 104c0 0 114-103 114-103m-251-112c0 0-178 280-178 280c-4 8-11 12-20 12c-4 0-8-2-12-5c-5-3-9-8-10-14c-1-7 0-12 3-17c0 0 191-300 191-300c3-6 7-9 14-11c6-2 12-1 19 3c0 0 125 80 125 80c0 0 115-166 115-166c4-6 9-9 15-10c6-1 12 1 17 5c13 8 15 18 6 31c0 0-128 185-128 185c-9 12-19 14-32 6c0 0-125-79-125-79"/>
    </symbol>
  
    <symbol id="ant-chart-area" viewBox="0 0 512 512">
      <path d="m499 60c5-7 8-6 8 2c0 0 0 394 0 394c0 0-494 0-494 0c-4 0-6-2-7-4c-1-2-1-5 2-9c0 0 118-147 118-147c7-8 14-8 20-1c0 0 38 34 38 34c4 2 7 4 11 3c4 0 7-2 9-5c0 0 81-122 81-122c5-9 12-10 19-2c0 0 57 53 57 53c7 7 14 6 20-2c0 0 118-194 118-194"/>
    </symbol>
  
    <symbol id="ant-chart-bar" viewBox="0 0 512 512">
      <path d="m435 26c8 0 14 2 19 7c4 5 7 11 7 18c0 0 0 435 0 435c0 0-103 0-103 0c0 0 0-435 0-435c0-17 7-25 21-25c0 0 56 0 56 0m-153 153c7 0 13 3 18 8c5 5 7 11 7 18c0 0 0 281 0 281c0 0-102 0-102 0c0 0 0-281 0-281c0-17 7-26 20-26c0 0 57 0 57 0m-154 154c8 0 14 2 18 7c5 6 8 12 8 18c0 0 0 128 0 128c0 0-103 0-103 0c0 0 0-128 0-128c0-17 7-25 21-25c0 0 56 0 56 0"/>
    </symbol>
  
    <symbol id="ant-warning" viewBox="0 0 512 512">
      <path d="m499 447c4 6 4 12 0 18c-3 5-8 8-15 8c0 0-457 0-457 0c-6 0-11-3-14-8c-4-6-4-12-1-18c0 0 228-400 228-400c3-6 8-9 16-9c7 0 12 3 15 9c0 0 228 400 228 400m-215-25c0 0 0-51 0-51c0 0-56 0-56 0c0 0 0 51 0 51c0 0 56 0 56 0m0-89c0 0 0-154 0-154c0 0-56 0-56 0c0 0 0 154 0 154c0 0 56 0 56 0"/>
    </symbol>
  
    <symbol id="ant-gauge" viewBox="0 0 512 512">
      <path d="m208 344c11-19 48-68 109-145c62-78 95-116 100-113c4 2-13 50-49 142c-37 93-61 149-71 167c-17 30-40 36-70 19c-29-17-36-41-19-70m48-194c-57 0-106 21-145 65c-40 43-60 96-60 159c0 10 1 18 1 23c1 8-1 14-6 19c-5 5-10 8-17 9c-7 1-13-1-19-6c-5-5-8-11-9-18c0-2 0-7 0-13c-1-6-1-11-1-14c0-77 25-143 74-196c50-53 110-80 182-80c25 0 47 3 69 10c0 0-36 44-36 44c-14-2-25-2-33-2m185 31c47 53 71 117 71 193c0 13 0 22-1 28c-1 7-3 13-8 17c-5 5-11 7-18 7c0 0-2 0-2 0c-7-1-13-5-18-10c-4-6-6-12-5-19c0-4 1-12 1-23c0-51-14-97-41-137c2-5 5-14 10-27c5-12 9-22 11-29"/>
    </symbol>
  
    <symbol id="ant-reload-ccw" viewBox="0 0 512 512">
      <path d="m288 58c58 0 107 21 148 62c40 41 61 90 61 148c0 58-21 108-61 149c-41 41-90 61-148 61c-49 0-92-15-129-45c0 0 36-38 36-38c28 21 59 31 93 31c43 0 80-15 110-46c31-31 46-68 46-112c0-43-15-81-46-111c-30-31-67-46-110-46c-43 0-79 14-110 44c-31 30-46 66-47 108c0 0 73 0 73 0c0 0-94 105-94 105c0 0-95-105-95-105c0 0 64 0 64 0c1-56 21-105 62-145c41-40 90-60 147-60"/>
    </symbol>
  
    <symbol id="ant-heart-empty" viewBox="0 0 512 512">
      <path d="m440 106c24 22 36 49 36 80c0 32-12 58-36 80c0 0-184 169-184 169c0 0-184-169-184-169c-24-22-36-48-36-80c0-31 12-58 36-80c22-19 47-29 78-29c30 0 55 10 76 29c0 0 30 27 30 27c0 0 29-27 29-27c22-19 47-29 77-29c31 0 56 10 78 29m-27 134c14-14 21-32 21-54c0-22-6-39-19-51c-13-13-31-19-53-19c-17 0-35 8-53 24c0 0-53 47-53 47c0 0-54-47-54-47c-17-16-34-24-52-24c-22 0-40 6-54 19c-13 12-19 30-19 51c0 23 7 41 22 54c0 0 157 146 157 146c0 0 157-146 157-146"/>
    </symbol>
  
    <symbol id="ant-heart" viewBox="0 0 512 512">
      <path d="m440 105c24 22 36 49 36 80c0 32-12 59-36 81c0 0-184 169-184 169c0 0-184-169-184-169c-24-22-36-49-36-81c0-31 12-58 36-80c21-19 47-29 77-29c30 0 56 10 78 29c0 0 29 27 29 27c0 0 30-27 30-27c21-19 46-29 76-29c31 0 56 10 78 29"/>
    </symbol>
  
    <symbol id="ant-graduation-cap" viewBox="0 0 512 512">
      <path d="m85 313c0 0 171 86 171 86c0 0 141-69 141-69c-1 7-2 15-4 24c-1 8-2 14-3 18c-1 3-2 7-5 11c-4 5-8 9-13 12c-5 4-13 7-23 12c-13 6-27 13-41 21c-13 7-24 13-32 17c-8 4-15 6-20 6c-5 0-12-3-20-7c-9-5-20-11-33-19c-14-8-28-15-41-21c-25-10-42-22-53-35c-11-12-19-31-24-56m415-126c8 5 12 11 12 17c0 7-4 12-12 17c0 0-40 23-40 23c0 0-158-53-158-53c-7-12-23-18-46-18c-14 0-25 3-34 8c-10 6-14 13-14 21c0 8 4 15 14 20c9 6 20 8 34 8c9 0 15 0 18-2c0 0 150 35 150 35c0 0-137 78-137 78c-21 11-41 11-62 0c0 0-213-120-213-120c-8-5-12-10-12-17c0-6 4-12 12-17c0 0 213-119 213-119c21-11 41-11 62 0c0 0 213 119 213 119m-66 227c6-40 9-71 7-93c-2-23-5-38-10-47c0 0-7-11-7-11c0 0 36-19 36-19c2 2 4 7 6 14c2 7 5 24 9 52c3 27 2 61-4 101c-1 9-5 14-11 15c-6 1-12 0-18-3c-6-3-9-6-8-9"/>
    </symbol>
  
    <symbol id="ant-magnet" viewBox="0 0 512 512">
      <path d="m311 458c0 0 8-84 8-84c0 0 134 10 134 10c0 0-9 85-9 85c-1 10-6 14-16 12c0 0-102-8-102-8c-10 0-15-5-15-15m-251-74c0 0 133-10 133-10c0 0 8 84 8 84c0 4-1 7-3 10c-3 4-7 5-12 5c0 0-101 8-101 8c-4 1-8 0-11-3c-4-3-5-6-5-9c0 0-9-85-9-85m-13-138c-1-4-1-10-1-18c0-54 21-101 62-139c40-39 90-58 148-58c58 0 108 19 148 58c41 38 62 85 62 139c0 8 0 14-1 18c0 0-8 87-8 87c0 0-132-11-132-11c0 0 8-88 8-88c0 0 0-6 0-6c0-19-8-36-23-50c-15-14-33-21-54-21c-21 0-39 7-54 21c-15 14-23 31-23 50c0 0 0 6 0 6c0 0 8 88 8 88c0 0-132 11-132 11c0 0-8-87-8-87"/>
    </symbol>
  
    <symbol id="ant-comment-empty" viewBox="0 0 512 512">
      <path d="m256 110c-39 0-75 6-109 20c-34 13-61 31-81 53c-19 23-29 47-29 73c0 21 6 42 20 61c14 19 33 36 58 50l24 14l-7 28c-5 17-12 34-20 49c29-12 55-28 78-49l13-11l16 2c13 2 25 2 37 2c39 0 75-6 109-20c34-13 61-31 81-53c19-23 29-47 29-73c0-26-10-50-29-73c-20-22-47-40-81-53c-34-14-70-20-109-20z m256 146c0 33-11 64-34 92c-23 28-54 50-93 66c-40 17-83 25-129 25c-13 0-27-1-41-2c-38 33-82 56-132 69c-9 2-20 4-32 6l-2 0c-3 0-5-1-8-3c-2-2-3-5-4-8l0 0c-1-1-1-2 0-4c0-1 0-2 0-2c0-1 1-2 2-3l1-3c0 0 1-1 2-2c2-2 2-3 3-3c1-1 4-5 8-10c5-5 8-8 10-10c2-3 5-6 9-12c4-5 7-10 9-14c3-5 5-10 8-17c3-7 5-14 8-22c-30-17-54-38-71-63c-17-25-26-51-26-80c0-33 11-64 34-92c23-28 54-50 93-66c40-17 83-25 129-25c46 0 89 8 129 25c39 16 70 38 93 66c23 28 34 59 34 92z"/>
    </symbol>
  
    <symbol id="ant-comment" viewBox="0 0 512 512">
      <path d="m512 256c0 33-11 64-34 92c-23 28-54 50-93 66c-40 17-83 25-129 25c-13 0-27-1-41-2c-38 33-82 56-132 69c-9 2-20 4-32 6c-4 0-7 0-9-3c-3-2-4-4-5-8l0 0c-1-1-1-2 0-4c0-1 0-2 0-2c0-1 1-2 2-3l1-3c0 0 1-1 2-2c2-2 2-3 3-3c1-1 4-5 8-10c5-5 8-8 10-10c2-3 5-6 9-12c4-5 7-10 9-14c3-5 5-10 8-17c3-7 5-14 8-22c-30-17-54-38-71-63c-17-25-26-51-26-80c0-25 7-48 20-71c14-23 32-42 55-58c23-17 50-30 82-39c31-10 64-15 99-15c46 0 89 8 129 25c39 16 70 38 93 66c23 28 34 59 34 92z"/>
    </symbol>
  
    <symbol id="ant-search" viewBox="0 0 512 512">
      <path d="m347 238c0-36-12-66-37-91c-25-25-55-37-91-37c-35 0-65 12-90 37c-25 25-38 55-38 91c0 35 13 65 38 90c25 25 55 38 90 38c36 0 66-13 91-38c25-25 37-55 37-90z m147 237c0 10-4 19-11 26c-7 7-16 11-26 11c-10 0-19-4-26-11l-98-98c-34 24-72 36-114 36c-27 0-53-5-78-16c-25-11-46-25-64-43c-18-18-32-39-43-64c-10-25-16-51-16-78c0-28 6-54 16-78c11-25 25-47 43-65c18-18 39-32 64-43c25-10 51-15 78-15c28 0 54 5 79 15c24 11 46 25 64 43c18 18 32 40 43 65c10 24 16 50 16 78c0 42-12 80-36 114l98 98c7 7 11 15 11 25z"/>
    </symbol>
  
    <symbol id="ant-device-desktop" viewBox="0 0 512 512">
      <path d="m480 32c-16 0-432 0-448 0-16 0-32 16-32 32 0 16 0 272 0 288 0 16 16 32 32 32 16 0 160 0 160 0 0 0-96 32-96 64 0 16 16 32 32 32 16 0 240 0 256 0 16 0 32-16 32-32 0-32-96-64-96-64 0 0 144 0 160 0 16 0 32-16 32-32 0-16 0-272 0-288 0-16-16-32-32-32z m0 320l-448 0 0-288 448 0z m-32-256l-96 0c-192 32-271 150-288 192l0 32 384 0z"/>
    </symbol>
  
    <symbol id="ant-device-mobile" viewBox="0 0 512 512">
      <path d="m384 0l-256 0c-18 0-32 14-32 32l0 448c0 18 14 32 32 32l256 0c18 0 32-14 32-32l0-448c0-18-14-32-32-32z m-144 32l32 0c9 0 16 7 16 16 0 9-7 16-16 16l-32 0c-9 0-16-7-16-16 0-9 7-16 16-16z m32 448l-32 0c-9 0-16-7-16-16 0-9 7-16 16-16l32 0c9 0 16 7 16 16 0 9-7 16-16 16z m112-64l-256 0 0-320 256 0z"/>
    </symbol>
  
    <symbol id="ant-antenna-text" viewBox="0 0 512 512">
      <path d="m64 212l16 0 34 87-17 0-8-23-34 0-8 23-16 0z m-5 53l26 0-13-38 0 0z m59-29l13 0 0 10 0 0c2-4 5-6 8-8 4-2 7-3 12-3 6 0 12 1 16 5 4 4 6 9 6 16l0 43-14 0 0-39c0-5-1-9-3-11-2-2-5-3-9-3-3 0-5 0-7 1-2 1-3 2-4 3-2 2-3 4-3 6-1 2-2 4-2 6l0 37-13 0z m61 0l10 0 0-19 14 0 0 19 12 0 0 11-12 0 0 33c0 2 0 3 0 4 0 1 0 2 1 3 0 0 1 1 2 1 1 1 2 1 4 1 1 0 2 0 2 0 1 0 2 0 3-1l0 11c-1 0-3 0-4 0-2 1-3 1-5 1-3 0-6-1-8-1-3-1-4-2-6-3-1-2-2-3-2-5-1-2-1-5-1-7l0-37-10 0z m55 35c0 3 0 5 1 7 0 3 2 5 3 6 1 2 3 3 5 4 2 1 5 2 8 2 4 0 7-1 9-3 3-1 5-4 6-8l13 0c-1 4-2 7-4 10-1 2-4 4-6 6-3 2-5 4-9 4-3 1-6 2-9 2-5 0-10-1-13-3-4-1-8-3-10-6-3-3-5-7-6-11-1-4-2-8-2-13 0-5 1-9 2-13 1-4 3-7 6-10 3-4 6-6 10-8 3-1 8-2 12-2 5 0 10 1 14 3 4 2 7 5 9 8 3 3 5 7 6 12 1 4 1 9 1 13z m32-9c0-2-1-4-1-6-1-2-2-4-3-5-2-2-3-3-5-4-2-1-4-1-7-1-2 0-4 0-6 1-2 1-4 2-5 3-2 2-3 4-4 6-1 2-1 4-1 6z m22-26l13 0 0 10 0 0c3-4 5-6 9-8 3-2 7-3 11-3 7 0 12 1 16 5 4 4 6 9 6 16l0 43-14 0 0-39c0-5-1-9-3-11-2-2-5-3-9-3-2 0-4 0-6 1-2 1-4 2-5 3-1 2-2 4-3 6-1 2-1 4-1 6l0 37-14 0z m67 0l13 0 0 10 1 0c2-4 5-6 8-8 3-2 7-3 11-3 7 0 13 1 17 5 4 4 6 9 6 16l0 43-14 0 0-39c0-5-2-9-3-11-2-2-5-3-10-3-2 0-4 0-6 1-2 1-3 2-5 3-1 2-2 4-3 6 0 2-1 4-1 6l0 37-14 0z m120 49c0 2 1 3 1 4 0 1 1 1 3 1 0 0 0 0 1 0 1 0 1 0 2 0l0 9c-1 0-1 1-2 1-1 0-1 0-2 0-1 1-2 1-3 1-1 0-1 0-2 0-3 0-5-1-7-2-2-1-3-3-3-6-3 3-7 5-11 6-4 1-8 2-11 2-3 0-6-1-8-1-3-1-5-2-7-4-2-1-4-3-5-5-1-3-2-5-2-9 0-3 1-7 2-9 2-2 4-4 6-6 2-1 5-2 8-3 3 0 6-1 8-1 3-1 5-1 8-1 2 0 4-1 6-1 1-1 3-1 4-2 1-1 1-3 1-5 0-2 0-3-1-4-1-1-2-2-3-3-1-1-3-1-4-1-2 0-3 0-5 0-4 0-7 0-9 2-3 2-4 4-5 8l-13 0c0-5 1-8 2-11 2-2 4-4 7-6 3-2 6-3 9-3 3-1 7-1 10-1 3 0 6 0 9 1 3 0 6 1 8 3 3 1 5 3 6 5 2 3 2 6 2 9z m-14-17c-2 1-4 2-7 2-3 0-7 1-10 1-1 1-2 1-4 1-1 1-2 2-3 2-2 1-2 2-3 3-1 2-1 3-1 5 0 1 1 3 1 4 1 1 2 2 4 2 1 1 2 1 4 2 1 0 3 0 4 0 1 0 3 0 5-1 2 0 3-1 5-2 1-1 3-2 4-3 1-2 1-4 1-6z"/>
    </symbol>
  
    <symbol id="ant-antenna-logo" viewBox="0 0 512 512">
      <path d="m283 510c125-17 229-124 229-253 0-141-115-256-256-256-141 0-256 115-256 256 0 130 108 237 233 254l0-149c-48-14-84-50-84-102 0-65 43-113 108-113 65 0 107 48 107 113 0 52-33 88-81 102z"/>
    </symbol>
  
    <symbol id="ant-menu" viewBox="0 0 512 512">
      <path d="m410 230c7 0 13 3 18 8c5 5 7 11 7 18c0 7-2 13-7 18c-6 5-12 8-18 8c0 0-308 0-308 0c-6 0-12-3-18-8c-5-5-7-11-7-18c0-7 2-13 7-18c5-5 11-8 18-8c0 0 308 0 308 0m-308-51c-6 0-12-2-18-7c-5-6-7-12-7-18c0-7 2-13 7-18c5-5 11-8 18-8c0 0 308 0 308 0c7 0 13 3 18 8c5 5 7 11 7 18c0 6-2 12-7 18c-6 5-12 7-18 7c0 0-308 0-308 0m308 154c7 0 13 2 18 7c5 6 7 12 7 18c0 7-2 13-7 18c-6 5-12 8-18 8c0 0-308 0-308 0c-6 0-12-3-18-8c-5-5-7-11-7-18c0-6 2-12 7-18c5-5 11-7 18-7c0 0 308 0 308 0"/>
    </symbol>
  
</svg>
